<?xml version="1.0" encoding="UTF-8"?>
<svg xmlns="http://www.w3.org/2000/svg" xmlns:xlink="http://www.w3.org/1999/xlink" width="2834.65" height="2096.55" viewBox="0 0 2834.65 2096.55">
<defs>
<clipPath id="clip-0">
<path clip-rule="nonzero" d="M 0 0 L 2834.648438 0 L 2834.648438 2096.550781 L 0 2096.550781 Z M 0 0 "/>
</clipPath>
<clipPath id="clip-1">
<path clip-rule="nonzero" d="M 136 144 L 2698 144 L 2698 1814 L 136 1814 Z M 136 144 "/>
</clipPath>
<clipPath id="clip-2">
<path clip-rule="nonzero" d="M 1913.601562 1813.148438 C 1326.949219 1813.148438 483.40625 1798.421875 483.40625 1798.421875 C 271.761719 1777.96875 104.492188 1649.371094 142.039062 1406.460938 C 179.59375 1163.558594 370.753906 1099.261719 421.960938 963.511719 C 473.164062 827.769531 363.929688 634.871094 483.40625 474.121094 C 602.882812 313.378906 879.390625 402.679688 1046.660156 345.53125 C 1205.199219 291.351562 1311.621094 144.109375 1490.878906 144.109375 C 1500.75 144.109375 1510.820312 144.550781 1521.148438 145.480469 C 1719.148438 163.339844 1831.800781 431.261719 1971.761719 449.121094 C 1982.578125 450.5 1993.488281 451.109375 2004.46875 451.109375 C 2047.320312 451.109375 2091.410156 441.800781 2136.75 432.488281 C 2182.078125 423.179688 2228.671875 413.871094 2276.480469 413.871094 C 2327.128906 413.871094 2379.160156 424.308594 2432.601562 456.261719 C 2599.871094 556.28125 2497.460938 995.148438 2552.070312 1115.078125 C 2606.691406 1235 2733 1370.398438 2688.621094 1536.679688 C 2644.238281 1702.960938 2545.25 1765.300781 2463.320312 1798.421875 C 2436.011719 1809.46875 2206.890625 1813.148438 1913.601562 1813.148438 M 1917.769531 1312.671875 L 1880.929688 1150.570312 L 1822.839844 960.570312 L 1684.769531 985.449219 L 1494.898438 945.488281 L 1562 1150.570312 L 1542.398438 1312.671875 L 1917.769531 1312.671875 "/>
</clipPath>
<clipPath id="clip-3">
<path clip-rule="nonzero" d="M 1913.601562 1813.148438 C 1326.949219 1813.148438 483.40625 1798.421875 483.40625 1798.421875 C 271.761719 1777.96875 104.492188 1649.371094 142.039062 1406.460938 C 179.59375 1163.558594 370.753906 1099.261719 421.960938 963.511719 C 473.164062 827.769531 363.929688 634.871094 483.40625 474.121094 C 602.882812 313.378906 879.390625 402.679688 1046.660156 345.53125 C 1205.199219 291.351562 1311.621094 144.109375 1490.878906 144.109375 C 1500.75 144.109375 1510.820312 144.550781 1521.148438 145.480469 C 1719.148438 163.339844 1831.800781 431.261719 1971.761719 449.121094 C 1982.578125 450.5 1993.488281 451.109375 2004.46875 451.109375 C 2047.320312 451.109375 2091.410156 441.800781 2136.75 432.488281 C 2182.078125 423.179688 2228.671875 413.871094 2276.480469 413.871094 C 2327.128906 413.871094 2379.160156 424.308594 2432.601562 456.261719 C 2599.871094 556.28125 2497.460938 995.148438 2552.070312 1115.078125 C 2606.691406 1235 2733 1370.398438 2688.621094 1536.679688 C 2644.238281 1702.960938 2545.25 1765.300781 2463.320312 1798.421875 C 2436.011719 1809.46875 2206.890625 1813.148438 1913.601562 1813.148438 M 1917.769531 1312.671875 L 1880.929688 1150.570312 L 1822.839844 960.570312 L 1684.769531 985.449219 L 1494.898438 945.488281 L 1562 1150.570312 L 1542.398438 1312.671875 L 1917.769531 1312.671875 "/>
</clipPath>
<linearGradient id="linear-pattern-0" gradientUnits="userSpaceOnUse" x1="-0.00954255" y1="0" x2="0.985889" y2="0" gradientTransform="matrix(0, -1676.7, 1676.7, 0, 1417.32, 1797.15)">
<stop offset="0" stop-color="rgb(93.331909%, 89.01825%, 94.900513%)" stop-opacity="1"/>
<stop offset="0.03125" stop-color="rgb(93.217468%, 89.025879%, 94.943237%)" stop-opacity="1"/>
<stop offset="0.0625" stop-color="rgb(92.939758%, 89.047241%, 95.046997%)" stop-opacity="1"/>
<stop offset="0.09375" stop-color="rgb(92.610168%, 89.071655%, 95.169067%)" stop-opacity="1"/>
<stop offset="0.125" stop-color="rgb(92.280579%, 89.096069%, 95.291138%)" stop-opacity="1"/>
<stop offset="0.15625" stop-color="rgb(91.950989%, 89.120483%, 95.413208%)" stop-opacity="1"/>
<stop offset="0.1875" stop-color="rgb(91.621399%, 89.144897%, 95.535278%)" stop-opacity="1"/>
<stop offset="0.21875" stop-color="rgb(91.291809%, 89.169312%, 95.657349%)" stop-opacity="1"/>
<stop offset="0.25" stop-color="rgb(90.963745%, 89.193726%, 95.779419%)" stop-opacity="1"/>
<stop offset="0.28125" stop-color="rgb(90.634155%, 89.21814%, 95.899963%)" stop-opacity="1"/>
<stop offset="0.3125" stop-color="rgb(90.304565%, 89.242554%, 96.022034%)" stop-opacity="1"/>
<stop offset="0.34375" stop-color="rgb(89.974976%, 89.266968%, 96.144104%)" stop-opacity="1"/>
<stop offset="0.375" stop-color="rgb(89.645386%, 89.291382%, 96.266174%)" stop-opacity="1"/>
<stop offset="0.40625" stop-color="rgb(89.315796%, 89.315796%, 96.388245%)" stop-opacity="1"/>
<stop offset="0.4375" stop-color="rgb(88.987732%, 89.34021%, 96.510315%)" stop-opacity="1"/>
<stop offset="0.46875" stop-color="rgb(88.658142%, 89.364624%, 96.632385%)" stop-opacity="1"/>
<stop offset="0.5" stop-color="rgb(88.328552%, 89.389038%, 96.754456%)" stop-opacity="1"/>
<stop offset="0.53125" stop-color="rgb(87.998962%, 89.413452%, 96.876526%)" stop-opacity="1"/>
<stop offset="0.5625" stop-color="rgb(87.669373%, 89.437866%, 96.998596%)" stop-opacity="1"/>
<stop offset="0.59375" stop-color="rgb(87.339783%, 89.46228%, 97.120667%)" stop-opacity="1"/>
<stop offset="0.625" stop-color="rgb(87.010193%, 89.486694%, 97.242737%)" stop-opacity="1"/>
<stop offset="0.65625" stop-color="rgb(86.682129%, 89.511108%, 97.364807%)" stop-opacity="1"/>
<stop offset="0.6875" stop-color="rgb(86.352539%, 89.535522%, 97.486877%)" stop-opacity="1"/>
<stop offset="0.71875" stop-color="rgb(86.022949%, 89.559937%, 97.608948%)" stop-opacity="1"/>
<stop offset="0.75" stop-color="rgb(85.693359%, 89.584351%, 97.731018%)" stop-opacity="1"/>
<stop offset="0.78125" stop-color="rgb(85.36377%, 89.608765%, 97.853088%)" stop-opacity="1"/>
<stop offset="0.8125" stop-color="rgb(85.03418%, 89.633179%, 97.975159%)" stop-opacity="1"/>
<stop offset="0.84375" stop-color="rgb(84.70459%, 89.657593%, 98.095703%)" stop-opacity="1"/>
<stop offset="0.875" stop-color="rgb(84.376526%, 89.682007%, 98.217773%)" stop-opacity="1"/>
<stop offset="0.90625" stop-color="rgb(84.046936%, 89.706421%, 98.339844%)" stop-opacity="1"/>
<stop offset="0.9375" stop-color="rgb(83.717346%, 89.730835%, 98.461914%)" stop-opacity="1"/>
<stop offset="0.96875" stop-color="rgb(83.387756%, 89.755249%, 98.583984%)" stop-opacity="1"/>
<stop offset="1" stop-color="rgb(83.058167%, 89.779663%, 98.706055%)" stop-opacity="1"/>
</linearGradient>
</defs>
<g clip-path="url(#clip-0)">
<path fill-rule="nonzero" fill="rgb(100%, 100%, 100%)" fill-opacity="1" d="M 0 2096.550781 L 2834.648438 2096.550781 L 2834.648438 0 L 0 0 Z M 0 2096.550781 "/>
</g>
<g clip-path="url(#clip-1)">
<g clip-path="url(#clip-2)">
<g clip-path="url(#clip-3)">
<path fill-rule="nonzero" fill="url(#linear-pattern-0)" d="M 104.492188 1813.148438 L 2733 1813.148438 L 2733 144.109375 L 104.492188 144.109375 Z M 104.492188 1813.148438 "/>
</g>
</g>
</g>
<path fill-rule="nonzero" fill="rgb(39.208984%, 43.138123%, 86.326599%)" fill-opacity="1" d="M 1983.25 1589.808594 C 1986.789062 1597.570312 1989.320312 1606.710938 1989.25 1615.828125 C 1989.140625 1633.191406 1979.78125 1646.199219 1969.628906 1651.511719 C 1961.269531 1655.890625 1952.269531 1656.460938 1943.460938 1657.621094 C 1941.230469 1657.910156 1938.988281 1658.21875 1936.769531 1658.660156 C 1936.300781 1658.75 1935.839844 1658.890625 1935.359375 1659.039062 C 1934.851562 1659.191406 1934.339844 1659.359375 1933.828125 1659.460938 C 1933.039062 1659.640625 1932.261719 1659.710938 1931.480469 1659.519531 C 1928.800781 1658.851562 1927.53125 1655.160156 1927 1651.488281 C 1926.539062 1648.308594 1926.5 1645.078125 1925.941406 1641.910156 C 1925.308594 1638.46875 1924.351562 1635.140625 1923.058594 1632.089844 C 1919.441406 1623.5 1913.660156 1617.5 1908.328125 1611.160156 C 1902.980469 1604.808594 1897.679688 1597.328125 1895.769531 1587.890625 C 1893.378906 1576 1897.058594 1563.851562 1902.660156 1555.789062 C 1905.46875 1551.761719 1908.820312 1548.378906 1910.761719 1543.308594 C 1914 1534.878906 1912.601562 1523.339844 1909.28125 1513.628906 C 1905.96875 1503.898438 1900.988281 1495.359375 1896.710938 1486.308594 C 1894.011719 1480.578125 1891.441406 1473.699219 1892.601562 1467.878906 C 1893.460938 1463.609375 1896.128906 1461.050781 1898.578125 1458.550781 C 1903.269531 1453.738281 1907.871094 1447.179688 1907.351562 1437.988281 C 1906.941406 1430.730469 1903.441406 1423.800781 1900.570312 1417.03125 C 1897.710938 1410.230469 1895.28125 1401.980469 1897.289062 1396.171875 C 1898.910156 1391.519531 1902.898438 1389.988281 1906.601562 1388.769531 C 1913.261719 1386.589844 1920.921875 1384.628906 1927.871094 1390.910156 C 1931.300781 1394.039062 1934.019531 1398.800781 1936.421875 1403.609375 C 1939.710938 1410.148438 1942.730469 1417.609375 1942.71875 1424.761719 C 1942.710938 1428.128906 1942.03125 1431.171875 1941.679688 1434.371094 C 1940.761719 1442.550781 1941.960938 1451.898438 1944.988281 1460.238281 C 1952.75 1481.769531 1970.960938 1493.058594 1978.320312 1515.261719 C 1982.351562 1527.46875 1982.109375 1541.851562 1977.808594 1551.859375 C 1976.738281 1554.371094 1975.429688 1556.660156 1974.789062 1559.558594 C 1973.691406 1564.578125 1974.808594 1570.601562 1976.671875 1575.648438 C 1978.519531 1580.691406 1981.078125 1585.050781 1983.25 1589.808594 "/>
<path fill-rule="nonzero" fill="rgb(65.039062%, 74.414062%, 100%)" fill-opacity="1" d="M 1920.480469 1419.398438 C 1934.441406 1499.300781 1939.300781 1579.691406 1935.359375 1659.039062 C 1934.851562 1659.191406 1934.339844 1659.359375 1933.828125 1659.460938 C 1937.800781 1579.988281 1932.949219 1499.480469 1918.960938 1419.460938 C 1919.460938 1419.441406 1919.96875 1419.421875 1920.480469 1419.398438 "/>
<path fill-rule="nonzero" fill="rgb(47.068787%, 54.881287%, 98.046875%)" fill-opacity="1" d="M 1231.960938 1449.460938 L 1232.058594 1450.128906 C 1235.230469 1471.460938 1236.21875 1492 1235.308594 1510.730469 C 1235.269531 1511.578125 1235.230469 1512.421875 1235.179688 1513.25 C 1232.328125 1562.160156 1216.378906 1598.128906 1192.25 1602.550781 C 1191.949219 1602.589844 1191.660156 1602.648438 1191.378906 1602.691406 C 1191.089844 1602.730469 1190.800781 1602.769531 1190.511719 1602.808594 C 1166.808594 1605.609375 1141.699219 1577.578125 1124.621094 1533.800781 C 1124.320312 1533.039062 1124.019531 1532.261719 1123.730469 1531.488281 C 1117.078125 1513.960938 1111.710938 1493.988281 1108.199219 1472.53125 C 1108.078125 1471.839844 1107.96875 1471.148438 1107.871094 1470.460938 C 1107.75 1469.691406 1107.628906 1468.941406 1107.519531 1468.171875 C 1104.808594 1450.210938 1103.648438 1432.800781 1103.871094 1416.550781 C 1103.878906 1415.910156 1103.890625 1415.269531 1103.898438 1414.640625 C 1104.210938 1398.898438 1105.828125 1384.300781 1108.601562 1371.371094 C 1108.71875 1370.789062 1108.851562 1370.230469 1108.988281 1369.648438 C 1115.851562 1339.121094 1129.289062 1318.371094 1147.230469 1315.078125 C 1147.53125 1315.039062 1147.820312 1314.980469 1148.101562 1314.941406 C 1148.390625 1314.898438 1148.679688 1314.859375 1148.96875 1314.820312 C 1166.691406 1312.730469 1185.179688 1327.851562 1200.519531 1353.921875 C 1200.828125 1354.421875 1201.128906 1354.941406 1201.421875 1355.460938 C 1207.839844 1366.609375 1213.679688 1379.691406 1218.660156 1394.210938 C 1218.871094 1394.820312 1219.078125 1395.429688 1219.28125 1396.050781 C 1224.578125 1411.898438 1228.871094 1429.421875 1231.738281 1448.019531 L 1231.738281 1448.03125 C 1231.820312 1448.5 1231.890625 1448.96875 1231.960938 1449.460938 "/>
<path fill-rule="nonzero" fill="rgb(60.742188%, 66.992188%, 99.609375%)" fill-opacity="1" d="M 1148.96875 1314.820312 L 1192.25 1602.550781 C 1191.949219 1602.589844 1191.660156 1602.648438 1191.378906 1602.691406 C 1191.089844 1602.730469 1190.800781 1602.769531 1190.511719 1602.808594 L 1147.230469 1315.078125 C 1147.53125 1315.039062 1147.820312 1314.980469 1148.101562 1314.941406 C 1148.390625 1314.898438 1148.679688 1314.859375 1148.96875 1314.820312 "/>
<path fill-rule="nonzero" fill="rgb(60.742188%, 66.992188%, 99.609375%)" fill-opacity="1" d="M 1201.421875 1355.460938 L 1160.101562 1388.789062 L 1159.320312 1389.410156 L 1158.359375 1389.070312 L 1108.601562 1371.371094 C 1108.71875 1370.789062 1108.851562 1370.230469 1108.988281 1369.648438 L 1158.070312 1387.101562 L 1158.988281 1387.429688 L 1159.789062 1386.769531 L 1200.519531 1353.921875 C 1200.828125 1354.421875 1201.128906 1354.941406 1201.421875 1355.460938 "/>
<path fill-rule="nonzero" fill="rgb(60.742188%, 66.992188%, 99.609375%)" fill-opacity="1" d="M 1219.28125 1396.050781 L 1168.359375 1443.738281 L 1167.601562 1444.460938 L 1166.628906 1444.039062 L 1103.871094 1416.550781 C 1103.878906 1415.910156 1103.890625 1415.269531 1103.898438 1414.640625 L 1166.320312 1441.980469 L 1167.238281 1442.378906 L 1168.039062 1441.628906 L 1218.660156 1394.210938 C 1218.871094 1394.820312 1219.078125 1395.429688 1219.28125 1396.050781 "/>
<path fill-rule="nonzero" fill="rgb(60.742188%, 66.992188%, 99.609375%)" fill-opacity="1" d="M 1231.960938 1449.460938 L 1232.058594 1450.128906 L 1177.070312 1501.640625 L 1176.308594 1502.359375 L 1175.339844 1501.929688 L 1108.199219 1472.53125 C 1108.078125 1471.839844 1107.96875 1471.148438 1107.871094 1470.460938 L 1175.03125 1499.878906 L 1175.949219 1500.28125 L 1176.75 1499.53125 L 1231.738281 1448.03125 C 1231.820312 1448.5 1231.890625 1448.96875 1231.960938 1449.460938 "/>
<path fill-rule="nonzero" fill="rgb(60.742188%, 66.992188%, 99.609375%)" fill-opacity="1" d="M 1235.308594 1510.730469 C 1235.269531 1511.578125 1235.230469 1512.421875 1235.179688 1513.25 L 1185.769531 1559.53125 L 1185.011719 1560.25 L 1184.039062 1559.820312 L 1124.621094 1533.800781 C 1124.320312 1533.039062 1124.019531 1532.261719 1123.730469 1531.488281 L 1183.730469 1557.769531 L 1184.660156 1558.179688 L 1185.460938 1557.421875 L 1235.308594 1510.730469 "/>
<path fill-rule="nonzero" fill="rgb(54.881287%, 62.109375%, 99.609375%)" fill-opacity="1" d="M 1320.390625 1530.300781 L 1320.199219 1530.859375 C 1314.121094 1548.839844 1306.648438 1565.328125 1298.410156 1579.621094 C 1298.050781 1580.269531 1297.679688 1580.910156 1297.300781 1581.550781 C 1275.441406 1618.699219 1248.5 1640.460938 1227.828125 1634.238281 C 1227.578125 1634.148438 1227.339844 1634.078125 1227.089844 1634 C 1226.851562 1633.921875 1226.609375 1633.828125 1226.359375 1633.738281 C 1206.679688 1626.421875 1198.269531 1594.390625 1202.46875 1553.25 C 1202.539062 1552.53125 1202.621094 1551.808594 1202.699219 1551.078125 C 1204.53125 1534.679688 1208.351562 1516.890625 1214.210938 1498.679688 C 1214.398438 1498.089844 1214.589844 1497.511719 1214.789062 1496.921875 C 1215 1496.269531 1215.210938 1495.640625 1215.429688 1494.988281 C 1220.519531 1479.839844 1226.601562 1465.738281 1233.289062 1453.101562 C 1233.558594 1452.601562 1233.820312 1452.109375 1234.089844 1451.621094 C 1240.648438 1439.421875 1247.78125 1428.628906 1255.140625 1419.621094 C 1255.460938 1419.21875 1255.789062 1418.820312 1256.128906 1418.429688 C 1273.769531 1397.269531 1292.621094 1386.421875 1307.988281 1391.050781 C 1308.238281 1391.128906 1308.488281 1391.210938 1308.730469 1391.289062 C 1308.96875 1391.371094 1309.210938 1391.460938 1309.460938 1391.539062 C 1324.171875 1397.019531 1332.578125 1416.289062 1334.128906 1442.851562 C 1334.171875 1443.371094 1334.191406 1443.898438 1334.210938 1444.421875 C 1334.761719 1455.738281 1334.089844 1468.320312 1332.160156 1481.699219 C 1332.070312 1482.261719 1331.988281 1482.820312 1331.898438 1483.378906 C 1329.691406 1497.921875 1326.019531 1513.359375 1320.800781 1529.078125 L 1320.789062 1529.078125 C 1320.671875 1529.488281 1320.53125 1529.890625 1320.390625 1530.300781 "/>
<path fill-rule="nonzero" fill="rgb(60.742188%, 66.992188%, 99.609375%)" fill-opacity="1" d="M 1309.460938 1391.539062 L 1227.828125 1634.238281 C 1227.578125 1634.148438 1227.339844 1634.078125 1227.089844 1634 C 1226.851562 1633.921875 1226.609375 1633.828125 1226.359375 1633.738281 L 1307.988281 1391.050781 C 1308.238281 1391.128906 1308.488281 1391.210938 1308.730469 1391.289062 C 1308.96875 1391.371094 1309.210938 1391.460938 1309.460938 1391.539062 "/>
<path fill-rule="nonzero" fill="rgb(60.742188%, 66.992188%, 99.609375%)" fill-opacity="1" d="M 1334.210938 1444.421875 L 1288.46875 1453.941406 L 1287.609375 1454.109375 L 1287 1453.460938 L 1255.140625 1419.621094 C 1255.460938 1419.21875 1255.789062 1418.820312 1256.128906 1418.429688 L 1287.558594 1451.800781 L 1288.148438 1452.421875 L 1289.039062 1452.238281 L 1334.128906 1442.851562 C 1334.171875 1443.371094 1334.191406 1443.898438 1334.210938 1444.421875 "/>
<path fill-rule="nonzero" fill="rgb(60.742188%, 66.992188%, 99.609375%)" fill-opacity="1" d="M 1331.898438 1483.378906 L 1272.878906 1500.289062 L 1272 1500.539062 L 1271.410156 1499.820312 L 1233.289062 1453.101562 C 1233.558594 1452.601562 1233.820312 1452.109375 1234.089844 1451.621094 L 1271.988281 1498.089844 L 1272.550781 1498.769531 L 1273.480469 1498.511719 L 1332.160156 1481.699219 C 1332.070312 1482.261719 1331.988281 1482.820312 1331.898438 1483.378906 "/>
<path fill-rule="nonzero" fill="rgb(60.742188%, 66.992188%, 99.609375%)" fill-opacity="1" d="M 1320.390625 1530.300781 L 1320.199219 1530.859375 L 1256.460938 1549.121094 L 1255.570312 1549.378906 L 1254.980469 1548.660156 L 1214.210938 1498.679688 C 1214.398438 1498.089844 1214.589844 1497.511719 1214.789062 1496.921875 L 1255.570312 1546.921875 L 1256.128906 1547.609375 L 1257.058594 1547.339844 L 1320.789062 1529.078125 C 1320.671875 1529.488281 1320.53125 1529.890625 1320.390625 1530.300781 "/>
<path fill-rule="nonzero" fill="rgb(60.742188%, 66.992188%, 99.609375%)" fill-opacity="1" d="M 1298.410156 1579.621094 C 1298.050781 1580.269531 1297.679688 1580.910156 1297.300781 1581.550781 L 1240.03125 1597.949219 L 1239.148438 1598.210938 L 1238.558594 1597.480469 L 1202.46875 1553.25 C 1202.539062 1552.53125 1202.621094 1551.808594 1202.699219 1551.078125 L 1239.140625 1595.75 L 1239.699219 1596.441406 L 1240.628906 1596.171875 L 1298.410156 1579.621094 "/>
<path fill-rule="nonzero" fill="rgb(43.138123%, 50.976562%, 90.234375%)" fill-opacity="1" d="M 2063.730469 1622.121094 C 2065.359375 1636.238281 2064.679688 1652.039062 2059.871094 1666.480469 C 2050.761719 1693.941406 2029.21875 1709.761719 2010.378906 1712.949219 C 1994.878906 1715.609375 1980.300781 1711.878906 1965.738281 1709.179688 C 1962.050781 1708.5 1958.339844 1707.839844 1954.601562 1707.398438 C 1953.800781 1707.300781 1952.988281 1707.28125 1952.171875 1707.269531 C 1951.28125 1707.25 1950.378906 1707.238281 1949.511719 1707.148438 C 1948.179688 1707.019531 1946.898438 1706.730469 1945.769531 1706.03125 C 1941.859375 1703.589844 1941.738281 1697.078125 1942.78125 1690.988281 C 1943.691406 1685.710938 1945.289062 1680.570312 1946.03125 1675.25 C 1946.808594 1669.480469 1947.011719 1663.699219 1946.53125 1658.199219 C 1945.199219 1642.710938 1939.121094 1630.210938 1933.929688 1617.421875 C 1928.71875 1604.609375 1924.148438 1590 1926 1574.050781 C 1928.320312 1553.960938 1940.398438 1536.601562 1953.441406 1526.691406 C 1959.960938 1521.75 1967.019531 1518.101562 1972.710938 1511.058594 C 1982.179688 1499.359375 1985.898438 1480.339844 1985.640625 1463.230469 C 1985.378906 1446.101562 1981.878906 1430 1979.75 1413.441406 C 1978.410156 1402.960938 1977.890625 1390.71875 1982.71875 1382.101562 C 1986.269531 1375.761719 1991.828125 1373.078125 1997 1370.371094 C 2006.910156 1365.160156 2017.578125 1357.109375 2021.488281 1342.269531 C 2024.570312 1330.558594 2022.578125 1317.761719 2021.53125 1305.539062 C 2020.480469 1293.289062 2020.871094 1278.949219 2027.058594 1270.78125 C 2032.019531 1264.238281 2039.128906 1263.851562 2045.628906 1263.828125 C 2057.308594 1263.808594 2070.480469 1264.628906 2078.25 1278.171875 C 2082.101562 1284.898438 2083.960938 1293.851562 2085.289062 1302.710938 C 2087.128906 1314.78125 2088.089844 1328.160156 2084.390625 1339.5 C 2082.640625 1344.828125 2080.011719 1349.300781 2077.800781 1354.191406 C 2072.128906 1366.699219 2069.21875 1382.148438 2069.738281 1396.929688 C 2070.96875 1435.078125 2094.039062 1462.339844 2094.289062 1501.351562 C 2094.390625 1522.78125 2086.621094 1545.460938 2074.648438 1559.128906 C 2071.648438 1562.558594 2068.398438 1565.511719 2065.890625 1569.789062 C 2061.570312 1577.191406 2060.238281 1587.308594 2060.589844 1596.261719 C 2060.929688 1605.210938 2062.75 1613.449219 2063.730469 1622.121094 "/>
<path fill-rule="nonzero" fill="rgb(65.039062%, 74.414062%, 100%)" fill-opacity="1" d="M 2051.890625 1319.558594 C 2032.910156 1453.460938 1999.238281 1583.449219 1952.171875 1707.269531 C 1951.28125 1707.25 1950.378906 1707.238281 1949.511719 1707.148438 C 1996.71875 1583.160156 2030.449219 1452.96875 2049.429688 1318.871094 C 2050.25 1319.101562 2051.070312 1319.328125 2051.890625 1319.558594 "/>
<path fill-rule="nonzero" fill="rgb(58.789062%, 70.506287%, 100%)" fill-opacity="1" d="M 421.628906 1849.539062 C 429.367188 1710.398438 516.207031 1656.238281 629.699219 1575.421875 C 743.191406 1494.589844 779.304688 1381.101562 901.394531 1381.101562 C 1032.078125 1381.101562 1085.871094 1525.449219 1209.679688 1570.148438 C 1333.488281 1614.859375 1375.988281 1647.609375 1404.371094 1736.199219 C 1440.691406 1849.539062 421.628906 1849.539062 421.628906 1849.539062 "/>
<path fill-rule="nonzero" fill="rgb(58.789062%, 70.506287%, 100%)" fill-opacity="1" d="M 1445.371094 1783.480469 C 1485.550781 1642.359375 1759.179688 1703.050781 1841.21875 1680.960938 C 1952.28125 1651.058594 1997.851562 1440.199219 2114.609375 1438.128906 C 2231.371094 1436.050781 2268.390625 1643.941406 2325.351562 1712.289062 C 2382.300781 1780.640625 2419.328125 1879.558594 2348.128906 1884.210938 C 2276.929688 1888.851562 1445.371094 1783.480469 1445.371094 1783.480469 "/>
<path fill-rule="nonzero" fill="rgb(47.068787%, 54.881287%, 98.046875%)" fill-opacity="1" d="M 408.039062 1784.699219 C 450.253906 1812.28125 468.808594 1860.191406 471.832031 1868.640625 C 472.128906 1869.488281 472.277344 1869.941406 472.277344 1869.941406 C 472.277344 1869.941406 471.808594 1869.980469 470.914062 1870.050781 C 461.960938 1870.679688 410.632812 1872.929688 368.417969 1845.351562 C 326.195312 1817.769531 307.636719 1769.859375 304.617188 1761.410156 C 304.320312 1760.558594 304.171875 1760.109375 304.171875 1760.109375 C 304.171875 1760.109375 304.640625 1760.070312 305.535156 1760 C 314.488281 1759.371094 365.816406 1757.121094 408.039062 1784.699219 "/>
<path fill-rule="nonzero" fill="rgb(70.506287%, 75.389099%, 99.804688%)" fill-opacity="1" d="M 305.535156 1760 L 471.832031 1868.640625 C 472.128906 1869.488281 472.277344 1869.941406 472.277344 1869.941406 C 472.277344 1869.941406 471.808594 1869.980469 470.914062 1870.050781 L 304.617188 1761.410156 C 304.320312 1760.558594 304.171875 1760.109375 304.171875 1760.109375 C 304.171875 1760.109375 304.640625 1760.070312 305.535156 1760 "/>
<path fill-rule="nonzero" fill="rgb(47.068787%, 54.881287%, 98.046875%)" fill-opacity="1" d="M 595.554688 1747.339844 C 582.191406 1806.398438 536.039062 1847.351562 527.789062 1854.289062 C 526.964844 1854.980469 526.523438 1855.339844 526.523438 1855.339844 C 526.523438 1855.339844 526.277344 1854.828125 525.828125 1853.851562 C 521.367188 1844.03125 497.339844 1787.210938 510.703125 1728.140625 C 524.066406 1669.070312 570.21875 1628.128906 578.46875 1621.191406 C 579.292969 1620.5 579.734375 1620.140625 579.734375 1620.140625 C 579.734375 1620.140625 579.980469 1620.648438 580.429688 1621.628906 C 584.890625 1631.449219 608.917969 1688.269531 595.554688 1747.339844 "/>
<path fill-rule="nonzero" fill="rgb(70.506287%, 75.389099%, 99.804688%)" fill-opacity="1" d="M 580.429688 1621.628906 L 527.789062 1854.289062 C 526.964844 1854.980469 526.523438 1855.339844 526.523438 1855.339844 C 526.523438 1855.339844 526.277344 1854.828125 525.828125 1853.851562 L 578.46875 1621.191406 C 579.292969 1620.5 579.734375 1620.140625 579.734375 1620.140625 C 579.734375 1620.140625 579.980469 1620.648438 580.429688 1621.628906 "/>
<path fill-rule="nonzero" fill="rgb(47.068787%, 54.881287%, 98.046875%)" fill-opacity="1" d="M 486.054688 1724.679688 C 507.695312 1788.621094 476.6875 1856.808594 472.875 1868.210938 C 472.492188 1869.339844 472.277344 1869.941406 472.277344 1869.941406 C 472.277344 1869.941406 471.746094 1869.589844 470.75 1868.921875 C 460.800781 1862.179688 404.902344 1822.121094 383.261719 1758.179688 C 361.617188 1694.230469 381.691406 1628.449219 385.503906 1617.050781 C 385.886719 1615.910156 386.101562 1615.320312 386.101562 1615.320312 C 386.101562 1615.320312 386.632812 1615.660156 387.628906 1616.328125 C 397.574219 1623.070312 464.410156 1660.730469 486.054688 1724.679688 "/>
<path fill-rule="nonzero" fill="rgb(70.506287%, 75.389099%, 99.804688%)" fill-opacity="1" d="M 387.628906 1616.328125 L 472.875 1868.210938 C 472.492188 1869.339844 472.277344 1869.941406 472.277344 1869.941406 C 472.277344 1869.941406 471.746094 1869.589844 470.75 1868.921875 L 385.503906 1617.050781 C 385.886719 1615.910156 386.101562 1615.320312 386.101562 1615.320312 C 386.101562 1615.320312 386.632812 1615.660156 387.628906 1616.328125 "/>
<path fill-rule="nonzero" fill="rgb(39.208984%, 43.138123%, 86.326599%)" fill-opacity="1" d="M 2221.078125 1702.601562 C 2243.46875 1773.519531 2219.871094 1845.53125 2215.421875 1857.988281 C 2214.960938 1859.238281 2214.71875 1859.890625 2214.71875 1859.890625 C 2214.71875 1859.890625 2214.140625 1859.5 2213.058594 1858.738281 C 2202.25 1851.089844 2141.578125 1805.691406 2119.199219 1734.769531 C 2096.800781 1663.839844 2120.398438 1591.839844 2124.859375 1579.371094 C 2125.308594 1578.128906 2125.558594 1577.480469 2125.558594 1577.480469 C 2125.558594 1577.480469 2126.128906 1577.859375 2127.21875 1578.628906 C 2138.019531 1586.269531 2198.691406 1631.671875 2221.078125 1702.601562 "/>
<path fill-rule="nonzero" fill="rgb(70.506287%, 75.389099%, 99.804688%)" fill-opacity="1" d="M 2127.21875 1578.628906 L 2215.421875 1857.988281 C 2214.960938 1859.238281 2214.71875 1859.890625 2214.71875 1859.890625 C 2214.71875 1859.890625 2214.140625 1859.5 2213.058594 1858.738281 L 2124.859375 1579.371094 C 2125.308594 1578.128906 2125.558594 1577.480469 2125.558594 1577.480469 C 2125.558594 1577.480469 2126.128906 1577.859375 2127.21875 1578.628906 "/>
<path fill-rule="nonzero" fill="rgb(47.068787%, 54.881287%, 98.046875%)" fill-opacity="1" d="M 2469.941406 1835.230469 C 2399.5 1890.121094 2308.570312 1893.710938 2292.679688 1893.921875 C 2291.089844 1893.929688 2290.25 1893.929688 2290.25 1893.929688 C 2290.25 1893.929688 2290.449219 1893.109375 2290.851562 1891.578125 C 2294.941406 1876.210938 2320.628906 1788.921875 2391.078125 1734.019531 C 2461.53125 1679.121094 2552.460938 1675.53125 2568.351562 1675.320312 C 2569.941406 1675.308594 2570.78125 1675.320312 2570.78125 1675.320312 C 2570.78125 1675.320312 2570.578125 1676.128906 2570.179688 1677.671875 C 2566.089844 1693.03125 2540.398438 1780.320312 2469.941406 1835.230469 "/>
<path fill-rule="nonzero" fill="rgb(70.506287%, 75.389099%, 99.804688%)" fill-opacity="1" d="M 2570.179688 1677.671875 L 2292.679688 1893.921875 C 2291.089844 1893.929688 2290.25 1893.929688 2290.25 1893.929688 C 2290.25 1893.929688 2290.449219 1893.109375 2290.851562 1891.578125 L 2568.351562 1675.320312 C 2569.941406 1675.308594 2570.78125 1675.320312 2570.78125 1675.320312 C 2570.78125 1675.320312 2570.578125 1676.128906 2570.179688 1677.671875 "/>
<path fill-rule="nonzero" fill="rgb(47.068787%, 54.881287%, 98.046875%)" fill-opacity="1" d="M 2366.191406 1707.039062 C 2331.121094 1800.210938 2232.019531 1849.03125 2217.019531 1858.46875 C 2215.511719 1859.410156 2214.71875 1859.890625 2214.71875 1859.890625 C 2214.71875 1859.890625 2214.429688 1859 2213.921875 1857.308594 C 2208.871094 1840.320312 2182.539062 1742.359375 2217.601562 1649.191406 C 2252.679688 1556 2337.058594 1499.710938 2352.058594 1490.261719 C 2353.558594 1489.320312 2354.359375 1488.851562 2354.359375 1488.851562 C 2354.359375 1488.851562 2354.640625 1489.730469 2355.160156 1491.429688 C 2360.210938 1508.421875 2401.261719 1613.851562 2366.191406 1707.039062 "/>
<path fill-rule="nonzero" fill="rgb(70.506287%, 75.389099%, 99.804688%)" fill-opacity="1" d="M 2355.160156 1491.429688 L 2217.019531 1858.46875 C 2215.511719 1859.410156 2214.71875 1859.890625 2214.71875 1859.890625 C 2214.71875 1859.890625 2214.429688 1859 2213.921875 1857.308594 L 2352.058594 1490.261719 C 2353.558594 1489.320312 2354.359375 1488.851562 2354.359375 1488.851562 C 2354.359375 1488.851562 2354.640625 1489.730469 2355.160156 1491.429688 "/>
<path fill-rule="nonzero" fill="rgb(74.804688%, 82.421875%, 98.046875%)" fill-opacity="1" d="M 2530.480469 1866.25 L 2498.578125 1858.320312 C 1777.371094 1678.960938 1022.539062 1684.75 304.171875 1875.140625 C 508.539062 1921.050781 922.183594 1952.441406 1399.210938 1952.441406 C 1906.410156 1952.441406 2341.949219 1916.949219 2530.480469 1866.25 "/>
<path fill-rule="nonzero" fill="rgb(100%, 100%, 100%)" fill-opacity="1" d="M 1915.800781 661.179688 C 1912.578125 659.339844 1908.738281 658.910156 1905.03125 659 C 1895.628906 659.238281 1886.609375 662.539062 1877.789062 665.800781 C 1885.808594 657.300781 1885.878906 644.261719 1885.460938 632.578125 C 1885.410156 630.980469 1885.339844 629.351562 1884.789062 627.839844 C 1884.070312 625.871094 1882.558594 624.269531 1880.851562 623.058594 C 1872.191406 616.941406 1859.421875 620.820312 1852.351562 628.730469 C 1845.28125 636.628906 1842.511719 647.371094 1840 657.671875 C 1840.441406 650.058594 1840.578125 642.261719 1838.210938 635.011719 C 1835.839844 627.769531 1830.511719 621.089844 1823.179688 618.988281 C 1816.191406 616.988281 1808.089844 619.761719 1803.789062 625.628906 C 1800.75 629.78125 1799.628906 635.078125 1799.609375 640.230469 C 1799.601562 643.011719 1799.921875 645.789062 1800.519531 648.511719 C 1801.578125 653.300781 1803.550781 657.878906 1806.261719 661.96875 C 1807.621094 664.019531 1809.160156 665.941406 1810.871094 667.699219 C 1812.070312 668.941406 1814.828125 670.480469 1815.339844 672.140625 C 1812.789062 671.359375 1810.261719 668.890625 1808.199219 667.238281 C 1805.859375 665.371094 1803.558594 663.441406 1801 661.871094 C 1795.710938 658.621094 1789.398438 657.03125 1783.199219 657.390625 C 1777.300781 657.730469 1770.609375 660.839844 1769.738281 666.679688 C 1769.101562 670.941406 1771.960938 675.121094 1775.660156 677.328125 C 1779.359375 679.539062 1783.75 680.191406 1788.03125 680.75 C 1792.789062 681.371094 1797.558594 681.941406 1802.339844 682.449219 L 1749.949219 685.230469 L 1845.441406 685.230469 L 1845.378906 685.21875 C 1864.070312 685.601562 1882.761719 684.828125 1901.320312 682.609375 C 1907.070312 681.921875 1913.171875 680.941406 1917.5 677.089844 C 1919.488281 675.320312 1921.03125 672.890625 1921.210938 670.230469 C 1921.46875 666.53125 1919.011719 663.019531 1915.800781 661.179688 "/>
<path fill-rule="nonzero" fill="rgb(100%, 100%, 100%)" fill-opacity="1" d="M 2328.210938 809.390625 C 2323.210938 792.078125 2291.070312 785.429688 2285.039062 800.449219 C 2299.519531 764.371094 2259.898438 750.410156 2239.890625 751.230469 C 2215.140625 752.238281 2198.460938 774.851562 2193.730469 791.160156 C 2201.199219 765.421875 2200.128906 727.738281 2173.261719 711.050781 C 2120.171875 691.789062 2085.46875 746.070312 2116.140625 792.410156 C 2101.421875 774.871094 2056.390625 745.570312 2040.878906 773.339844 C 2032.949219 793.878906 2037.410156 820.558594 2057.101562 832.398438 L 1990.769531 839.410156 C 2025.789062 828.238281 2345.738281 868.691406 2328.210938 809.390625 "/>
<path fill-rule="nonzero" fill="rgb(98.046875%, 64.646912%, 56.443787%)" fill-opacity="1" d="M 2007.351562 1463.640625 C 2009.28125 1463.640625 2009.28125 1460.640625 2007.351562 1460.640625 C 2005.421875 1460.640625 2005.421875 1463.640625 2007.351562 1463.640625 "/>
<path fill-rule="nonzero" fill="rgb(79.881287%, 85.9375%, 98.4375%)" fill-opacity="1" d="M 1575.839844 1149.210938 L 1575.46875 1152.199219 L 1557.710938 1299.101562 L 1900.769531 1299.101562 L 1867.800781 1154.058594 L 1813.378906 976.070312 L 1687.179688 998.808594 L 1684.570312 999.28125 L 1681.980469 998.730469 L 1515.109375 963.609375 L 1574.898438 1146.351562 L 1575.839844 1149.210938 "/>
<path fill-rule="nonzero" fill="rgb(100%, 100%, 100%)" fill-opacity="1" d="M 1681.980469 998.730469 L 1684.570312 999.28125 L 1687.179688 998.808594 L 1813.378906 976.070312 L 1867.800781 1154.058594 L 1900.769531 1299.101562 L 1557.710938 1299.101562 L 1575.46875 1152.199219 L 1575.839844 1149.210938 L 1574.898438 1146.351562 L 1515.109375 963.609375 L 1681.980469 998.730469 M 1917.769531 1312.671875 L 1880.929688 1150.570312 L 1822.839844 960.570312 L 1684.769531 985.449219 L 1494.898438 945.488281 L 1562 1150.570312 L 1542.398438 1312.671875 L 1917.769531 1312.671875 "/>
<path fill-rule="nonzero" fill="rgb(74.021912%, 81.25%, 97.65625%)" fill-opacity="1" d="M 1716.410156 1165.699219 L 1575.839844 1149.210938 L 1574.898438 1146.351562 L 1515.109375 963.609375 L 1681.980469 998.730469 L 1684.570312 999.28125 L 1687.179688 998.808594 L 1716.410156 1165.699219 "/>
<path fill-rule="nonzero" fill="rgb(92.576599%, 94.53125%, 99.21875%)" fill-opacity="1" d="M 1542.398438 1312.671875 L 1562 1150.570312 L 1494.898438 945.488281 L 1684.769531 985.449219 L 1687.179688 998.808594 L 1684.570312 999.28125 L 1681.980469 998.730469 L 1515.109375 963.609375 L 1574.898438 1146.351562 L 1575.839844 1149.210938 L 1562 1150.570312 L 1542.398438 1312.671875 "/>
<path fill-rule="nonzero" fill="rgb(74.021912%, 81.25%, 97.65625%)" fill-opacity="1" d="M 1900.769531 1299.101562 L 1739.78125 1299.101562 L 1716.410156 1165.699219 L 1867.800781 1154.058594 L 1900.769531 1299.101562 "/>
<path fill-rule="nonzero" fill="rgb(92.576599%, 94.53125%, 99.21875%)" fill-opacity="1" d="M 1917.769531 1312.671875 L 1742.160156 1312.671875 L 1739.78125 1299.101562 L 1900.769531 1299.101562 L 1867.800781 1154.058594 L 1880.929688 1150.570312 L 1917.769531 1312.671875 "/>
<path fill-rule="nonzero" fill="rgb(68.554688%, 76.951599%, 96.875%)" fill-opacity="1" d="M 1739.78125 1299.101562 L 1557.710938 1299.101562 L 1575.46875 1152.199219 L 1575.839844 1149.210938 L 1716.410156 1165.699219 L 1739.78125 1299.101562 "/>
<path fill-rule="nonzero" fill="rgb(85.546875%, 89.451599%, 98.4375%)" fill-opacity="1" d="M 1742.160156 1312.671875 L 1542.398438 1312.671875 L 1562 1150.570312 L 1575.839844 1149.210938 L 1575.46875 1152.199219 L 1557.710938 1299.101562 L 1739.78125 1299.101562 L 1742.160156 1312.671875 "/>
<path fill-rule="nonzero" fill="rgb(98.046875%, 64.646912%, 56.443787%)" fill-opacity="1" d="M 1712.871094 1319.511719 C 1692.351562 1347.921875 1726.699219 1799.398438 1726.699219 1799.398438 L 1746.96875 1799.398438 C 1746.96875 1799.398438 1766.429688 1654.289062 1761.378906 1622.539062 C 1756.320312 1590.789062 1777.671875 1389.761719 1777.671875 1389.761719 L 1785.328125 1261.289062 L 1712.871094 1319.511719 "/>
<path fill-rule="nonzero" fill="rgb(98.046875%, 64.646912%, 56.443787%)" fill-opacity="1" d="M 1788.660156 1346.070312 C 1770.269531 1375.898438 1842.339844 1799.398438 1842.339844 1799.398438 L 1862.050781 1799.398438 C 1862.050781 1799.398438 1870.359375 1652.449219 1863 1621.148438 C 1855.640625 1589.851562 1857.660156 1375.230469 1857.660156 1375.230469 L 1834.890625 1346.609375 L 1788.660156 1346.070312 "/>
<path fill-rule="nonzero" fill="rgb(98.046875%, 64.646912%, 56.443787%)" fill-opacity="1" d="M 1742.140625 979.410156 C 1735.691406 1011.679688 1734.621094 1063.289062 1750.75 1064.910156 C 1766.878906 1066.519531 1784.078125 1069.210938 1796.988281 1046.089844 C 1809.890625 1022.96875 1826.019531 942.308594 1786.230469 956.828125 C 1746.441406 971.351562 1742.140625 979.410156 1742.140625 979.410156 "/>
<path fill-rule="nonzero" fill="rgb(98.046875%, 64.646912%, 56.443787%)" fill-opacity="1" d="M 1768.960938 1053.71875 L 1768.960938 1084.539062 L 1800.808594 1084.539062 L 1794.949219 1044.441406 L 1768.960938 1053.71875 "/>
<path fill-rule="nonzero" fill="rgb(93.75%, 46.655273%, 45.092773%)" fill-opacity="1" d="M 1840.851562 998.941406 L 1840.851562 998.960938 C 1840.890625 1006.269531 1839.789062 1015.121094 1835.871094 1021.300781 C 1822.429688 1042.511719 1795.429688 1057.039062 1795.429688 1057.039062 C 1793.839844 1056.429688 1792.398438 1055.621094 1791.101562 1054.609375 C 1783.410156 1048.609375 1765.851562 1039.578125 1771.601562 1023.230469 C 1774.269531 1015.640625 1772.171875 1004.960938 1765.929688 1011.191406 C 1760.628906 1016.480469 1737.921875 1002.378906 1735.039062 999.421875 C 1726.601562 990.839844 1720.75 977.648438 1732.160156 963.441406 C 1747.480469 944.359375 1782.460938 939.539062 1801.109375 947.328125 C 1804.28125 948.660156 1807.441406 950.210938 1810.511719 952.019531 C 1811.289062 952.46875 1812.058594 952.941406 1812.820312 953.421875 C 1813.429688 953.808594 1814.039062 954.210938 1814.640625 954.621094 C 1815.210938 955 1815.78125 955.390625 1816.328125 955.789062 C 1816.710938 956.058594 1817.089844 956.351562 1817.460938 956.648438 L 1817.46875 956.660156 C 1829.289062 966.179688 1840.25 990.371094 1840.289062 990.660156 C 1840.320312 990.828125 1840.328125 991 1840.351562 991.179688 C 1840.53125 992.558594 1840.671875 994.148438 1840.761719 995.878906 C 1840.808594 996.859375 1840.839844 997.878906 1840.851562 998.941406 "/>
<path fill-rule="nonzero" fill="rgb(50.976562%, 66.601562%, 94.921875%)" fill-opacity="1" d="M 1819.730469 1261.289062 L 1725.050781 1261.289062 C 1725.050781 1261.289062 1725.808594 1150.421875 1725.808594 1124.871094 C 1725.808594 1116.539062 1720.089844 1101.910156 1737.390625 1094.320312 C 1742.421875 1092.121094 1749.609375 1089.839844 1755.859375 1088.039062 C 1759.398438 1087.019531 1762.640625 1086.160156 1765.011719 1085.539062 C 1767.441406 1084.910156 1768.949219 1084.539062 1768.949219 1084.539062 L 1800.800781 1084.539062 C 1800.800781 1084.539062 1840.949219 1097.96875 1845.5 1111.609375 C 1850.039062 1125.25 1819.730469 1261.289062 1819.730469 1261.289062 "/>
<path fill-rule="nonzero" fill="rgb(93.75%, 46.655273%, 45.092773%)" fill-opacity="1" d="M 1840.859375 998.941406 C 1840.671875 999 1837.878906 999.421875 1836.671875 999.421875 L 1836.660156 999.421875 C 1827.648438 999.351562 1818.5 992.449219 1814.058594 981.328125 C 1811.140625 974.03125 1810.789062 966.328125 1812.609375 959.800781 C 1813.121094 957.96875 1813.800781 956.21875 1814.648438 954.609375 L 1814.75 954.429688 C 1816.800781 950.570312 1819.789062 947.480469 1823.578125 945.640625 C 1825.578125 944.660156 1827.5 943.910156 1829.351562 943.449219 C 1837.71875 941.328125 1851.941406 948.660156 1851.371094 972.351562 C 1865.308594 991.511719 1841.140625 998.878906 1840.859375 998.941406 "/>
<path fill-rule="nonzero" fill="rgb(21.972656%, 16.868591%, 44.700623%)" fill-opacity="1" d="M 1725.050781 1261.289062 C 1699.988281 1303.910156 1695.878906 1403.558594 1694.550781 1425.378906 C 1694.519531 1426.011719 1777.421875 1429.671875 1777.421875 1429.671875 C 1779.210938 1417.828125 1782.589844 1382.210938 1782.589844 1382.210938 C 1782.589844 1382.210938 1783.960938 1410.691406 1786.121094 1429.171875 C 1786.289062 1430.601562 1863.558594 1430.839844 1864.261719 1429.550781 C 1866.828125 1424.769531 1855.378906 1335.011719 1842.851562 1304.328125 C 1829.210938 1270.898438 1819.730469 1261.289062 1819.730469 1261.289062 L 1725.050781 1261.289062 "/>
<path fill-rule="nonzero" fill="rgb(21.972656%, 16.868591%, 44.700623%)" fill-opacity="1" d="M 1714.511719 1783.109375 L 1757.710938 1783.109375 L 1753.378906 1809.019531 L 1753.609375 1833.128906 L 1672.449219 1833.128906 C 1672.449219 1833.128906 1666.03125 1831.128906 1679.46875 1821.710938 C 1692.910156 1812.28125 1722.28125 1808.121094 1722.28125 1808.121094 L 1714.511719 1783.109375 "/>
<path fill-rule="nonzero" fill="rgb(21.972656%, 16.868591%, 44.700623%)" fill-opacity="1" d="M 1828.921875 1783.109375 L 1872.128906 1783.109375 L 1867.789062 1809.019531 L 1868.808594 1833.128906 L 1786.859375 1833.128906 C 1786.859375 1833.128906 1780.441406 1831.128906 1793.878906 1821.710938 C 1807.320312 1812.28125 1836.691406 1808.121094 1836.691406 1808.121094 L 1828.921875 1783.109375 "/>
<path fill-rule="nonzero" fill="rgb(98.046875%, 64.646912%, 56.443787%)" fill-opacity="1" d="M 1591.578125 1160.710938 C 1591.078125 1156.449219 1590.089844 1152.261719 1588.320312 1148.359375 C 1586.859375 1145.140625 1585.140625 1141.890625 1583.78125 1140.871094 C 1580.800781 1138.628906 1575.761719 1135.460938 1572.589844 1132.109375 C 1569.429688 1128.75 1568.121094 1128 1568.308594 1130.800781 C 1568.488281 1133.601562 1575.019531 1142.359375 1573.710938 1142.359375 C 1572.410156 1142.359375 1547.988281 1137.878906 1547.429688 1141.800781 C 1546.871094 1145.710938 1554.890625 1148.320312 1557.5 1153.921875 C 1560.109375 1159.511719 1562 1162.558594 1572.25 1166.46875 C 1572.949219 1166.738281 1578.980469 1169.941406 1580.511719 1170.929688 L 1591.621094 1160.859375 C 1591.609375 1160.851562 1591.589844 1160.800781 1591.578125 1160.710938 "/>
<path fill-rule="nonzero" fill="rgb(98.046875%, 64.646912%, 56.443787%)" fill-opacity="1" d="M 1737.390625 1094.320312 C 1691.648438 1105.550781 1692.03125 1206.351562 1672.699219 1207.859375 C 1653.820312 1209.339844 1594.980469 1162.628906 1591.621094 1160.859375 L 1580.511719 1170.929688 C 1593.519531 1187.648438 1646.019531 1247.289062 1678.511719 1247.53125 C 1713.371094 1247.78125 1727.898438 1165.550781 1734.96875 1148.621094 C 1742.050781 1131.691406 1737.390625 1094.320312 1737.390625 1094.320312 "/>
<path fill-rule="nonzero" fill="rgb(31.37207%, 39.208984%, 74.414062%)" fill-opacity="1" d="M 1786.410156 1096.410156 C 1786.410156 1096.410156 1749.671875 1160.890625 1749.671875 1232.128906 C 1749.671875 1303.371094 1897.851562 1302.328125 1897.851562 1232.128906 C 1897.851562 1161.929688 1869.679688 1096.410156 1869.679688 1096.410156 L 1786.410156 1096.410156 "/>
<path fill-rule="nonzero" fill="rgb(43.138123%, 50.976562%, 90.234375%)" fill-opacity="1" d="M 1753.480469 1190.789062 C 1753.480469 1190.789062 1720.890625 1259.28125 1768.648438 1259.28125 C 1816.410156 1259.28125 1794.980469 1190.789062 1794.980469 1190.789062 L 1753.480469 1190.789062 "/>
<path fill-rule="nonzero" fill="rgb(43.138123%, 50.976562%, 90.234375%)" fill-opacity="1" d="M 1824.101562 1190.789062 C 1824.101562 1190.789062 1794.710938 1259.28125 1847.101562 1259.28125 C 1899.488281 1259.28125 1909.070312 1256.898438 1909.070312 1225.71875 C 1909.070312 1194.53125 1895.660156 1190.789062 1895.660156 1190.789062 L 1824.101562 1190.789062 "/>
<path fill-rule="nonzero" fill="rgb(43.138123%, 50.976562%, 90.234375%)" fill-opacity="1" d="M 1878.160156 1118.140625 L 1781.46875 1118.140625 C 1769.46875 1118.140625 1759.75 1108.410156 1759.75 1096.410156 C 1759.75 1084.410156 1769.46875 1074.679688 1781.46875 1074.679688 L 1878.160156 1074.679688 C 1890.160156 1074.679688 1899.890625 1084.410156 1899.890625 1096.410156 C 1899.890625 1108.410156 1890.160156 1118.140625 1878.160156 1118.140625 "/>
<path fill-rule="nonzero" fill="rgb(31.37207%, 39.208984%, 74.414062%)" fill-opacity="1" d="M 1793.558594 1096.410156 C 1793.558594 1104.429688 1787.671875 1110.941406 1780.398438 1110.941406 C 1773.140625 1110.941406 1767.25 1104.429688 1767.25 1096.410156 C 1767.25 1088.390625 1773.140625 1081.878906 1780.398438 1081.878906 C 1787.671875 1081.878906 1793.558594 1088.390625 1793.558594 1096.410156 "/>
<path fill-rule="nonzero" fill="rgb(31.37207%, 39.208984%, 74.414062%)" fill-opacity="1" d="M 1822.230469 1096.410156 C 1822.230469 1108.410156 1812.5 1118.128906 1800.511719 1118.128906 C 1799.199219 1118.128906 1797.910156 1118.019531 1796.660156 1117.789062 C 1806.820312 1115.980469 1814.53125 1107.078125 1814.53125 1096.410156 C 1814.53125 1085.730469 1806.820312 1076.839844 1796.660156 1075.039062 C 1797.910156 1074.808594 1799.199219 1074.691406 1800.511719 1074.691406 C 1812.5 1074.691406 1822.230469 1084.410156 1822.230469 1096.410156 "/>
<path fill-rule="nonzero" fill="rgb(31.37207%, 39.208984%, 74.414062%)" fill-opacity="1" d="M 1874.140625 1096.410156 C 1874.140625 1108.410156 1864.410156 1118.128906 1852.421875 1118.128906 C 1851.109375 1118.128906 1849.820312 1118.019531 1848.570312 1117.789062 C 1858.730469 1115.980469 1866.441406 1107.078125 1866.441406 1096.410156 C 1866.441406 1085.730469 1858.730469 1076.839844 1848.570312 1075.039062 C 1849.820312 1074.808594 1851.109375 1074.691406 1852.421875 1074.691406 C 1864.410156 1074.691406 1874.140625 1084.410156 1874.140625 1096.410156 "/>
<path fill-rule="nonzero" fill="rgb(21.972656%, 16.868591%, 44.700623%)" fill-opacity="1" d="M 1818.019531 985.171875 C 1817.878906 985.171875 1817.730469 985.140625 1817.589844 985.070312 C 1810.859375 981.828125 1806.988281 977.660156 1806.101562 972.679688 C 1804.710938 964.921875 1811.078125 958.210938 1811.351562 957.929688 C 1811.730469 957.53125 1812.371094 957.519531 1812.761719 957.910156 C 1813.160156 958.289062 1813.171875 958.921875 1812.789062 959.320312 C 1812.730469 959.378906 1806.859375 965.589844 1808.070312 972.339844 C 1808.851562 976.640625 1812.339844 980.320312 1818.460938 983.269531 C 1818.960938 983.511719 1819.160156 984.109375 1818.921875 984.609375 C 1818.75 984.960938 1818.390625 985.171875 1818.019531 985.171875 "/>
<path fill-rule="nonzero" fill="rgb(21.972656%, 16.868591%, 44.700623%)" fill-opacity="1" d="M 1833.070312 1003.640625 C 1827.710938 1003.640625 1823.601562 1002.140625 1820.789062 999.171875 C 1815.371094 993.421875 1816.96875 984.371094 1817.039062 983.988281 C 1817.140625 983.449219 1817.660156 983.089844 1818.199219 983.191406 C 1818.75 983.289062 1819.109375 983.808594 1819.011719 984.351562 C 1818.988281 984.441406 1817.53125 992.800781 1822.25 997.808594 C 1825.289062 1001.019531 1830.25 1002.21875 1837.011719 1001.378906 C 1837.558594 1001.308594 1838.058594 1001.699219 1838.121094 1002.25 C 1838.191406 1002.800781 1837.800781 1003.300781 1837.25 1003.371094 C 1835.789062 1003.550781 1834.390625 1003.640625 1833.070312 1003.640625 "/>
<path fill-rule="nonzero" fill="rgb(21.972656%, 16.868591%, 44.700623%)" fill-opacity="1" d="M 896.457031 1041.5 C 897.644531 1041.601562 898.792969 1041.671875 900.015625 1041.671875 C 903.605469 1041.671875 905.769531 1039.820312 905.769531 1036.75 C 905.769531 1033.859375 904.023438 1032.011719 900.152344 1032.011719 C 899.175781 1032.011719 897.605469 1032.039062 896.457031 1032.078125 Z M 899.875 1029.21875 C 906.851562 1029.21875 908.910156 1032.980469 908.910156 1036.789062 C 908.910156 1040.761719 906.082031 1044.460938 900.117188 1044.460938 C 899.140625 1044.460938 897.675781 1044.429688 896.457031 1044.320312 L 896.457031 1052.480469 C 896.457031 1053.289062 895.792969 1053.949219 894.992188 1053.949219 C 894.152344 1053.949219 893.492188 1053.289062 893.492188 1052.480469 L 893.492188 1030.75 C 893.492188 1029.949219 894.152344 1029.289062 894.957031 1029.289062 C 896.5625 1029.25 898.757812 1029.21875 899.875 1029.21875 "/>
<path fill-rule="nonzero" fill="rgb(21.972656%, 16.868591%, 44.700623%)" fill-opacity="1" d="M 920.316406 1033.089844 L 915.921875 1043.519531 L 924.710938 1043.519531 Z M 925.863281 1046.308594 L 914.734375 1046.308594 L 911.945312 1052.96875 C 911.628906 1053.738281 911.175781 1053.949219 910.617188 1053.949219 C 909.710938 1053.949219 909.222656 1053.289062 909.222656 1052.589844 C 909.222656 1052.378906 909.292969 1052.171875 909.363281 1051.960938 L 918.710938 1030.300781 C 919.023438 1029.601562 919.582031 1029.109375 920.421875 1029.109375 C 921.257812 1029.109375 921.816406 1029.640625 922.09375 1030.300781 L 931.40625 1051.859375 C 931.476562 1052.070312 931.511719 1052.238281 931.511719 1052.449219 C 931.511719 1053.21875 930.988281 1053.949219 930.082031 1053.949219 C 929.453125 1053.949219 928.933594 1053.570312 928.6875 1052.96875 L 925.863281 1046.308594 "/>
<path fill-rule="nonzero" fill="rgb(21.972656%, 16.868591%, 44.700623%)" fill-opacity="1" d="M 936.363281 1041.5 C 936.363281 1047.429688 940.128906 1051.261719 945.675781 1051.261719 C 947.980469 1051.261719 950.664062 1050.359375 951.953125 1049.101562 L 951.953125 1044.078125 L 946.722656 1044.078125 C 945.988281 1044.078125 945.363281 1043.449219 945.363281 1042.679688 C 945.363281 1041.921875 945.988281 1041.289062 946.722656 1041.289062 L 953.28125 1041.289062 C 954.082031 1041.289062 954.746094 1041.949219 954.746094 1042.75 L 954.746094 1049.730469 C 954.746094 1050.5 954.328125 1051.050781 953.90625 1051.371094 C 951.675781 1053.078125 948.292969 1054.050781 945.605469 1054.050781 C 938.003906 1054.050781 933.222656 1049.101562 933.222656 1041.5 C 933.222656 1034.488281 937.933594 1028.941406 945.222656 1028.941406 C 947.980469 1028.941406 950.210938 1029.601562 951.921875 1030.609375 C 952.410156 1030.890625 952.652344 1031.351562 952.652344 1031.761719 C 952.652344 1032.011719 952.582031 1032.25 952.441406 1032.5 C 952.199219 1032.921875 951.746094 1033.121094 951.292969 1033.121094 C 951.011719 1033.121094 950.699219 1033.050781 950.386719 1032.878906 C 949.058594 1032.179688 947.421875 1031.730469 945.570312 1031.730469 C 940.128906 1031.730469 936.363281 1035.601562 936.363281 1041.5 "/>
<path fill-rule="nonzero" fill="rgb(21.972656%, 16.868591%, 44.700623%)" fill-opacity="1" d="M 973.269531 1050.910156 C 974 1050.910156 974.628906 1051.539062 974.628906 1052.308594 C 974.628906 1053.078125 974 1053.710938 973.269531 1053.710938 L 961.964844 1053.710938 C 961.164062 1053.710938 960.5 1053.039062 960.5 1052.238281 L 960.5 1030.75 C 960.5 1029.949219 961.164062 1029.289062 961.964844 1029.289062 L 972.917969 1029.289062 C 973.652344 1029.289062 974.28125 1029.921875 974.28125 1030.679688 C 974.28125 1031.449219 973.652344 1032.078125 972.917969 1032.078125 L 963.464844 1032.078125 L 963.464844 1039.960938 L 971.871094 1039.960938 C 972.605469 1039.960938 973.234375 1040.589844 973.234375 1041.359375 C 973.234375 1042.121094 972.605469 1042.75 971.871094 1042.75 L 963.464844 1042.75 L 963.464844 1050.910156 L 973.269531 1050.910156 "/>
<path fill-rule="nonzero" fill="rgb(21.972656%, 16.868591%, 44.700623%)" fill-opacity="1" d="M 1006.019531 1030.46875 C 1006.019531 1029.738281 1006.648438 1029.109375 1007.421875 1029.109375 C 1008.191406 1029.109375 1008.808594 1029.738281 1008.808594 1030.46875 L 1008.808594 1052.449219 C 1008.808594 1053.320312 1008.328125 1053.949219 1007.558594 1053.949219 C 1006.820312 1053.949219 1006.371094 1053.601562 1005.78125 1052.871094 L 991.199219 1034.488281 L 991.199219 1052.589844 C 991.199219 1053.320312 990.570312 1053.949219 989.804688 1053.949219 C 989.035156 1053.949219 988.40625 1053.320312 988.40625 1052.589844 L 988.40625 1030.75 C 988.40625 1029.921875 988.824219 1029.109375 989.769531 1029.109375 C 990.5 1029.109375 990.953125 1029.460938 991.652344 1030.371094 L 1006.019531 1048.539062 L 1006.019531 1030.46875 "/>
<path fill-rule="nonzero" fill="rgb(21.972656%, 16.868591%, 44.700623%)" fill-opacity="1" d="M 1017.359375 1041.5 C 1017.359375 1047.039062 1021.441406 1051.261719 1026.671875 1051.261719 C 1032.25 1051.261719 1035.988281 1047.011719 1035.988281 1041.5 C 1035.988281 1035.808594 1031.910156 1031.730469 1026.671875 1031.730469 C 1021.371094 1031.730469 1017.359375 1035.808594 1017.359375 1041.5 Z M 1014.21875 1041.5 C 1014.21875 1034.421875 1019.421875 1028.941406 1026.671875 1028.941406 C 1033.75 1028.941406 1039.128906 1034.070312 1039.128906 1041.5 C 1039.128906 1048.75 1033.75 1054.050781 1026.671875 1054.050781 C 1019.589844 1054.050781 1014.21875 1048.929688 1014.21875 1041.5 "/>
<path fill-rule="nonzero" fill="rgb(21.972656%, 16.868591%, 44.700623%)" fill-opacity="1" d="M 1051.578125 1052.480469 C 1051.578125 1053.289062 1050.921875 1053.949219 1050.121094 1053.949219 C 1049.28125 1053.949219 1048.621094 1053.289062 1048.621094 1052.480469 L 1048.621094 1032.078125 L 1041.429688 1032.078125 C 1040.699219 1032.078125 1040.070312 1031.449219 1040.070312 1030.679688 C 1040.070312 1029.921875 1040.699219 1029.289062 1041.429688 1029.289062 L 1058.769531 1029.289062 C 1059.5 1029.289062 1060.128906 1029.921875 1060.128906 1030.679688 C 1060.128906 1031.449219 1059.5 1032.078125 1058.769531 1032.078125 L 1051.578125 1032.078125 L 1051.578125 1052.480469 "/>
<path fill-rule="nonzero" fill="rgb(21.972656%, 16.868591%, 44.700623%)" fill-opacity="1" d="M 1074.949219 1043.519531 L 1074.949219 1052.480469 C 1074.949219 1053.289062 1074.289062 1053.949219 1073.488281 1053.949219 C 1072.648438 1053.949219 1071.988281 1053.289062 1071.988281 1052.480469 L 1071.988281 1030.75 C 1071.988281 1029.949219 1072.648438 1029.289062 1073.449219 1029.289062 L 1084.398438 1029.289062 C 1085.140625 1029.289062 1085.769531 1029.921875 1085.769531 1030.679688 C 1085.769531 1031.449219 1085.140625 1032.078125 1084.398438 1032.078125 L 1074.949219 1032.078125 L 1074.949219 1040.730469 L 1083.359375 1040.730469 C 1084.089844 1040.730469 1084.71875 1041.359375 1084.71875 1042.121094 C 1084.71875 1042.890625 1084.089844 1043.519531 1083.359375 1043.519531 L 1074.949219 1043.519531 "/>
<path fill-rule="nonzero" fill="rgb(21.972656%, 16.868591%, 44.700623%)" fill-opacity="1" d="M 1092.25 1041.5 C 1092.25 1047.039062 1096.328125 1051.261719 1101.570312 1051.261719 C 1107.148438 1051.261719 1110.878906 1047.011719 1110.878906 1041.5 C 1110.878906 1035.808594 1106.800781 1031.730469 1101.570312 1031.730469 C 1096.261719 1031.730469 1092.25 1035.808594 1092.25 1041.5 Z M 1089.109375 1041.5 C 1089.109375 1034.421875 1094.308594 1028.941406 1101.570312 1028.941406 C 1108.648438 1028.941406 1114.019531 1034.070312 1114.019531 1041.5 C 1114.019531 1048.75 1108.648438 1054.050781 1101.570312 1054.050781 C 1094.488281 1054.050781 1089.109375 1048.929688 1089.109375 1041.5 "/>
<path fill-rule="nonzero" fill="rgb(21.972656%, 16.868591%, 44.700623%)" fill-opacity="1" d="M 1129.191406 1051.230469 C 1133.210938 1051.230469 1135.679688 1048.46875 1135.679688 1042.929688 L 1135.679688 1030.539062 C 1135.679688 1029.78125 1136.351562 1029.109375 1137.179688 1029.109375 C 1137.980469 1029.109375 1138.648438 1029.78125 1138.648438 1030.539062 L 1138.648438 1043.519531 C 1138.648438 1050.980469 1134.179688 1054.019531 1129.191406 1054.019531 C 1123.328125 1054.019531 1119.078125 1050.429688 1119.078125 1043.28125 L 1119.078125 1030.539062 C 1119.078125 1029.78125 1119.738281 1029.109375 1120.578125 1029.109375 C 1121.378906 1029.109375 1122.039062 1029.78125 1122.039062 1030.539062 L 1122.039062 1042.71875 C 1122.039062 1048.019531 1124.621094 1051.230469 1129.191406 1051.230469 "/>
<path fill-rule="nonzero" fill="rgb(21.972656%, 16.868591%, 44.700623%)" fill-opacity="1" d="M 1163.238281 1030.46875 C 1163.238281 1029.738281 1163.871094 1029.109375 1164.628906 1029.109375 C 1165.398438 1029.109375 1166.03125 1029.738281 1166.03125 1030.46875 L 1166.03125 1052.449219 C 1166.03125 1053.320312 1165.539062 1053.949219 1164.769531 1053.949219 C 1164.039062 1053.949219 1163.589844 1053.601562 1163 1052.871094 L 1148.410156 1034.488281 L 1148.410156 1052.589844 C 1148.410156 1053.320312 1147.789062 1053.949219 1147.019531 1053.949219 C 1146.25 1053.949219 1145.621094 1053.320312 1145.621094 1052.589844 L 1145.621094 1030.75 C 1145.621094 1029.921875 1146.039062 1029.109375 1146.980469 1029.109375 C 1147.71875 1029.109375 1148.171875 1029.460938 1148.871094 1030.371094 L 1163.238281 1048.539062 L 1163.238281 1030.46875 "/>
<path fill-rule="nonzero" fill="rgb(21.972656%, 16.868591%, 44.700623%)" fill-opacity="1" d="M 1176.320312 1050.910156 C 1177.929688 1050.949219 1179.429688 1050.980469 1179.839844 1050.980469 C 1186.820312 1050.980469 1190.589844 1046.871094 1190.589844 1041.179688 C 1190.589844 1035.878906 1187.03125 1031.96875 1179.949219 1031.96875 C 1178.480469 1031.96875 1177.539062 1032.039062 1176.320312 1032.078125 Z M 1174.820312 1029.289062 C 1176.53125 1029.25 1178.480469 1029.179688 1180.019531 1029.179688 C 1189.789062 1029.179688 1193.730469 1034.800781 1193.730469 1041.179688 C 1193.730469 1048.121094 1189.050781 1053.769531 1179.738281 1053.769531 C 1178.410156 1053.769531 1176.710938 1053.738281 1174.820312 1053.710938 C 1174.019531 1053.710938 1173.359375 1053.039062 1173.359375 1052.238281 L 1173.359375 1030.75 C 1173.359375 1029.949219 1173.980469 1029.289062 1174.820312 1029.289062 "/>
<path fill-rule="nonzero" fill="rgb(47.068787%, 54.881287%, 98.046875%)" fill-opacity="1" d="M 954.878906 1149.210938 L 1145.320312 1149.210938 C 1162.859375 1149.210938 1177.078125 1136.738281 1177.078125 1121.359375 C 1177.078125 1105.96875 1162.859375 1093.5 1145.320312 1093.5 L 954.878906 1093.5 C 937.335938 1093.5 923.113281 1105.96875 923.113281 1121.359375 C 923.113281 1136.738281 937.335938 1149.210938 954.878906 1149.210938 "/>
<path fill-rule="nonzero" fill="rgb(100%, 100%, 100%)" fill-opacity="1" d="M 982.722656 1131.058594 C 981.507812 1131.488281 979.117188 1132.210938 976.289062 1132.210938 C 973.117188 1132.210938 970.507812 1131.398438 968.457031 1129.441406 C 966.65625 1127.699219 965.535156 1124.898438 965.535156 1121.640625 C 965.566406 1115.390625 969.855469 1110.828125 976.878906 1110.828125 C 979.300781 1110.828125 981.199219 1111.359375 982.101562 1111.789062 L 981.445312 1114 C 980.328125 1113.5 978.929688 1113.101562 976.816406 1113.101562 C 971.722656 1113.101562 968.394531 1116.261719 968.394531 1121.519531 C 968.394531 1126.828125 971.597656 1129.96875 976.476562 1129.96875 C 978.246094 1129.96875 979.457031 1129.71875 980.078125 1129.410156 L 980.078125 1123.160156 L 975.820312 1123.160156 L 975.820312 1120.988281 L 982.722656 1120.988281 L 982.722656 1131.058594 "/>
<path fill-rule="nonzero" fill="rgb(100%, 100%, 100%)" fill-opacity="1" d="M 988.503906 1121.640625 C 988.503906 1126.109375 990.925781 1130.121094 995.183594 1130.121094 C 999.472656 1130.121094 1001.898438 1126.179688 1001.898438 1121.421875 C 1001.898438 1117.261719 999.71875 1112.910156 995.214844 1112.910156 C 990.738281 1112.910156 988.503906 1117.039062 988.503906 1121.640625 Z M 1004.75 1121.300781 C 1004.75 1128.511719 1000.371094 1132.328125 995.027344 1132.328125 C 989.496094 1132.328125 985.613281 1128.039062 985.613281 1121.699219 C 985.613281 1115.050781 989.746094 1110.699219 995.339844 1110.699219 C 1001.058594 1110.699219 1004.75 1115.078125 1004.75 1121.300781 "/>
<path fill-rule="nonzero" fill="rgb(100%, 100%, 100%)" fill-opacity="1" d="M 1017.558594 1113.339844 L 1011.191406 1113.339844 L 1011.191406 1111.039062 L 1026.699219 1111.039062 L 1026.699219 1113.339844 L 1020.289062 1113.339844 L 1020.289062 1131.988281 L 1017.558594 1131.988281 L 1017.558594 1113.339844 "/>
<path fill-rule="nonzero" fill="rgb(100%, 100%, 100%)" fill-opacity="1" d="M 1029.839844 1121.640625 C 1029.839844 1126.109375 1032.261719 1130.121094 1036.519531 1130.121094 C 1040.800781 1130.121094 1043.230469 1126.179688 1043.230469 1121.421875 C 1043.230469 1117.261719 1041.050781 1112.910156 1036.550781 1112.910156 C 1032.070312 1112.910156 1029.839844 1117.039062 1029.839844 1121.640625 Z M 1046.089844 1121.300781 C 1046.089844 1128.511719 1041.710938 1132.328125 1036.359375 1132.328125 C 1030.828125 1132.328125 1026.949219 1128.039062 1026.949219 1121.699219 C 1026.949219 1115.050781 1031.078125 1110.699219 1036.671875 1110.699219 C 1042.390625 1110.699219 1046.089844 1115.078125 1046.089844 1121.300781 "/>
<path fill-rule="nonzero" fill="rgb(100%, 100%, 100%)" fill-opacity="1" d="M 1058.890625 1111.039062 L 1058.890625 1119.808594 L 1069.019531 1119.808594 L 1069.019531 1111.039062 L 1071.761719 1111.039062 L 1071.761719 1131.988281 L 1069.019531 1131.988281 L 1069.019531 1122.171875 L 1058.890625 1122.171875 L 1058.890625 1131.988281 L 1056.191406 1131.988281 L 1056.191406 1111.039062 L 1058.890625 1111.039062 "/>
<path fill-rule="nonzero" fill="rgb(100%, 100%, 100%)" fill-opacity="1" d="M 1078.101562 1121.640625 C 1078.101562 1126.109375 1080.519531 1130.121094 1084.78125 1130.121094 C 1089.070312 1130.121094 1091.488281 1126.179688 1091.488281 1121.421875 C 1091.488281 1117.261719 1089.320312 1112.910156 1084.808594 1112.910156 C 1080.339844 1112.910156 1078.101562 1117.039062 1078.101562 1121.640625 Z M 1094.351562 1121.300781 C 1094.351562 1128.511719 1089.96875 1132.328125 1084.621094 1132.328125 C 1079.089844 1132.328125 1075.210938 1128.039062 1075.210938 1121.699219 C 1075.210938 1115.050781 1079.339844 1110.699219 1084.929688 1110.699219 C 1090.648438 1110.699219 1094.351562 1115.078125 1094.351562 1121.300781 "/>
<path fill-rule="nonzero" fill="rgb(100%, 100%, 100%)" fill-opacity="1" d="M 1115.511719 1122.789062 C 1115.359375 1119.871094 1115.171875 1116.359375 1115.199219 1113.75 L 1115.109375 1113.75 C 1114.390625 1116.199219 1113.519531 1118.808594 1112.46875 1121.699219 L 1108.769531 1131.859375 L 1106.71875 1131.859375 L 1103.328125 1121.890625 C 1102.339844 1118.941406 1101.5 1116.230469 1100.910156 1113.75 L 1100.851562 1113.75 C 1100.78125 1116.359375 1100.628906 1119.871094 1100.441406 1123.011719 L 1099.878906 1131.988281 L 1097.300781 1131.988281 L 1098.761719 1111.039062 L 1102.210938 1111.039062 L 1105.789062 1121.171875 C 1106.660156 1123.75 1107.371094 1126.050781 1107.898438 1128.230469 L 1107.988281 1128.230469 C 1108.519531 1126.109375 1109.269531 1123.820312 1110.199219 1121.171875 L 1113.929688 1111.039062 L 1117.378906 1111.039062 L 1118.679688 1131.988281 L 1116.039062 1131.988281 L 1115.511719 1122.789062 "/>
<path fill-rule="nonzero" fill="rgb(100%, 100%, 100%)" fill-opacity="1" d="M 1133.691406 1122.171875 L 1125.550781 1122.171875 L 1125.550781 1129.71875 L 1134.628906 1129.71875 L 1134.628906 1131.988281 L 1122.851562 1131.988281 L 1122.851562 1111.039062 L 1134.160156 1111.039062 L 1134.160156 1113.308594 L 1125.550781 1113.308594 L 1125.550781 1119.929688 L 1133.691406 1119.929688 L 1133.691406 1122.171875 "/>
<path fill-rule="nonzero" fill="rgb(93.75%, 46.655273%, 45.092773%)" fill-opacity="1" d="M 859.828125 883.96875 L 859.828125 951.25 C 859.828125 962.710938 850.359375 971.179688 839.894531 971.179688 C 829.429688 971.179688 819.960938 962.710938 819.960938 951.25 L 819.960938 883.96875 L 679.921875 883.96875 C 668.460938 883.96875 658.492188 875 658.492188 863.539062 C 658.492188 859.050781 659.988281 854.070312 662.980469 849.578125 L 796.539062 633.789062 C 801.023438 626.320312 806.503906 621.328125 815.972656 621.328125 C 826.9375 621.328125 834.414062 629.808594 834.414062 639.769531 C 834.414062 643.261719 833.414062 647.75 830.925781 651.730469 L 711.320312 844.101562 L 819.960938 844.101562 L 819.960938 766.859375 C 819.960938 755.390625 829.429688 746.921875 839.894531 746.921875 C 850.359375 746.921875 859.828125 755.390625 859.828125 766.859375 L 859.828125 844.101562 L 887.238281 844.101562 C 898.699219 844.101562 908.167969 853.570312 908.167969 864.03125 C 908.167969 874.5 898.699219 883.96875 887.238281 883.96875 L 859.828125 883.96875 "/>
<path fill-rule="nonzero" fill="rgb(93.75%, 46.655273%, 45.092773%)" fill-opacity="1" d="M 979.84375 796.761719 C 979.84375 886.460938 1002.269531 937.789062 1051.609375 937.789062 C 1102.441406 937.789062 1121.378906 886.960938 1121.378906 796.761719 C 1121.378906 706.550781 1101.441406 655.71875 1050.609375 655.71875 C 999.777344 655.71875 979.84375 707.550781 979.84375 796.761719 Z M 937.484375 796.761719 C 937.484375 692.101562 971.871094 618.351562 1050.609375 618.351562 C 1129.351562 618.351562 1163.738281 692.101562 1163.738281 796.761719 C 1163.738281 901.910156 1130.351562 975.171875 1051.609375 975.171875 C 972.867188 975.171875 937.484375 901.910156 937.484375 796.761719 "/>
<path fill-rule="nonzero" fill="rgb(93.75%, 46.655273%, 45.092773%)" fill-opacity="1" d="M 1386.410156 883.96875 L 1386.410156 951.25 C 1386.410156 962.710938 1376.949219 971.179688 1366.480469 971.179688 C 1356.011719 971.179688 1346.550781 962.710938 1346.550781 951.25 L 1346.550781 883.96875 L 1206.511719 883.96875 C 1195.050781 883.96875 1185.078125 875 1185.078125 863.539062 C 1185.078125 859.050781 1186.570312 854.070312 1189.558594 849.578125 L 1323.121094 633.789062 C 1327.609375 626.320312 1333.089844 621.328125 1342.558594 621.328125 C 1353.519531 621.328125 1361 629.808594 1361 639.769531 C 1361 643.261719 1360 647.75 1357.511719 651.730469 L 1237.898438 844.101562 L 1346.550781 844.101562 L 1346.550781 766.859375 C 1346.550781 755.390625 1356.011719 746.921875 1366.480469 746.921875 C 1376.949219 746.921875 1386.410156 755.390625 1386.410156 766.859375 L 1386.410156 844.101562 L 1413.820312 844.101562 C 1425.289062 844.101562 1434.75 853.570312 1434.75 864.03125 C 1434.75 874.5 1425.289062 883.96875 1413.820312 883.96875 L 1386.410156 883.96875 "/>
</svg>
