<?xml version="1.0" encoding="UTF-8"?>
<svg xmlns="http://www.w3.org/2000/svg" xmlns:xlink="http://www.w3.org/1999/xlink" width="2100" height="2100" viewBox="0 0 2100 2100">
<path fill-rule="nonzero" fill="rgb(92.1875%, 55.271912%, 43.530273%)" fill-opacity="1" d="M 1314.289062 1085.25 C 1314.289062 1085.25 1260.449219 1088.839844 1244.660156 1097.949219 C 1228.878906 1107.0625 1227.828125 1162.003906 1227.828125 1162.003906 C 1227.828125 1162.003906 1264 1193.492188 1275.941406 1190.894531 C 1287.878906 1188.292969 1285.308594 1175.355469 1285.308594 1175.355469 L 1303.53125 1148.570312 L 1342.640625 1127.144531 L 1314.289062 1085.25 "/>
<path fill-rule="nonzero" fill="rgb(2.352905%, 40.380859%, 97.65625%)" fill-opacity="1" d="M 1480.128906 788.019531 L 1475.03125 965.339844 L 1314.289062 1085.25 C 1314.289062 1085.25 1311.25 1098.25 1323.871094 1117.320312 C 1336.5 1136.386719 1350.648438 1139.464844 1350.648438 1139.464844 L 1556.519531 1000.941406 L 1589.839844 793.121094 C 1589.839844 793.121094 1591.601562 738.640625 1539.429688 738.640625 C 1487.261719 738.640625 1480.128906 788.019531 1480.128906 788.019531 "/>
<path fill-rule="nonzero" fill="rgb(98.826599%, 76.171875%, 60.742188%)" fill-opacity="1" d="M 1333.230469 1085.25 C 1333.230469 1085.25 1279.390625 1088.839844 1263.609375 1097.949219 C 1247.820312 1107.0625 1246.769531 1162.003906 1246.769531 1162.003906 C 1246.769531 1162.003906 1282.941406 1193.492188 1294.878906 1190.894531 C 1306.820312 1188.292969 1304.25 1175.355469 1304.25 1175.355469 L 1322.46875 1148.570312 L 1361.578125 1127.144531 L 1333.230469 1085.25 "/>
<path fill-rule="nonzero" fill="rgb(10.205078%, 10.205078%, 36.863708%)" fill-opacity="1" d="M 1391.640625 1877.316406 L 1252.339844 1877.316406 L 1228.808594 1836.5625 C 1211.828125 1844.269531 1192.960938 1852.496094 1183.230469 1858.113281 C 1153.589844 1875.226562 1178.589844 1894.789062 1178.589844 1894.789062 L 1391.640625 1894.789062 L 1391.640625 1877.316406 "/>
<path fill-rule="nonzero" fill="rgb(92.1875%, 55.271912%, 43.530273%)" fill-opacity="1" d="M 1299.890625 1805.289062 C 1299.890625 1805.289062 1263.578125 1820.796875 1228.808594 1836.5625 L 1252.339844 1877.316406 L 1391.640625 1877.316406 L 1391.640625 1807.382812 L 1299.890625 1805.289062 "/>
<path fill-rule="nonzero" fill="rgb(10.205078%, 10.205078%, 36.863708%)" fill-opacity="1" d="M 1421.070312 1194.578125 L 1280.191406 1478 L 1282.101562 1800.019531 C 1282.101562 1800.019531 1298.621094 1813.308594 1332.980469 1815.367188 C 1367.339844 1817.429688 1394.578125 1810.339844 1394.578125 1810.339844 L 1404.328125 1529.6875 L 1595.328125 1341.613281 L 1498.480469 1208.527344 L 1421.070312 1194.578125 "/>
<path fill-rule="nonzero" fill="rgb(12.939453%, 12.939453%, 47.068787%)" fill-opacity="1" d="M 1952.96875 1699.144531 L 1915.980469 1837.15625 L 1859.890625 1838.203125 C 1859.890625 1838.203125 1825.351562 1854.519531 1818.019531 1881.867188 C 1810.699219 1909.214844 1832.289062 1917.117188 1832.289062 1917.117188 L 1927.210938 1873.066406 L 1970.460938 1708.851562 L 1952.96875 1699.144531 "/>
<path fill-rule="nonzero" fill="rgb(98.826599%, 76.171875%, 60.742188%)" fill-opacity="1" d="M 1892.339844 1665.476562 L 1856.648438 1741.332031 L 1859.890625 1838.203125 L 1915.980469 1837.15625 L 1952.96875 1699.144531 L 1892.339844 1665.476562 "/>
<path fill-rule="nonzero" fill="rgb(12.939453%, 12.939453%, 47.068787%)" fill-opacity="1" d="M 1464.199219 1208.527344 L 1561.609375 1561.261719 L 1819.710938 1768.015625 C 1819.710938 1768.015625 1843.539062 1769.660156 1869.628906 1734.882812 C 1895.730469 1700.109375 1892.339844 1665.476562 1892.339844 1665.476562 L 1707.890625 1497.460938 L 1678.601562 1201.886719 L 1464.199219 1208.527344 "/>
<path fill-rule="nonzero" fill="rgb(92.1875%, 55.271912%, 43.530273%)" fill-opacity="1" d="M 1574.910156 650.46875 L 1565.308594 618.25 L 1475.050781 661.128906 L 1482.628906 709.230469 L 1574.910156 650.46875 "/>
<path fill-rule="nonzero" fill="rgb(17.651367%, 63.476562%, 98.826599%)" fill-opacity="1" d="M 1678.601562 904.820312 L 1678.601562 1201.886719 C 1678.601562 1201.886719 1637.878906 1224.910156 1549.308594 1224.910156 C 1460.738281 1224.910156 1421.070312 1194.578125 1421.070312 1194.578125 C 1421.070312 1194.578125 1425.171875 1044.160156 1433.621094 902.078125 C 1442.070312 760 1481.050781 698.410156 1481.050781 698.410156 L 1585.101562 661.359375 C 1585.101562 661.359375 1640.660156 685.390625 1659.03125 751.691406 C 1677.410156 817.988281 1678.601562 904.820312 1678.601562 904.820312 "/>
<path fill-rule="nonzero" fill="rgb(1.177979%, 50.584412%, 88.28125%)" fill-opacity="1" d="M 1585.238281 660.390625 L 1502.078125 734.800781 L 1491.960938 718.039062 L 1481.050781 698.410156 L 1574.910156 650.46875 L 1585.238281 660.390625 "/>
<path fill-rule="nonzero" fill="rgb(98.826599%, 76.171875%, 60.742188%)" fill-opacity="1" d="M 1385.359375 470.699219 L 1396.03125 606.230469 C 1396.03125 606.230469 1423.019531 664.878906 1458.191406 674.308594 C 1493.351562 683.730469 1536.308594 660.75 1565.488281 630.191406 C 1594.671875 599.640625 1610.480469 507.039062 1610.480469 507.039062 C 1610.480469 507.039062 1606.800781 417.960938 1515.421875 401.839844 C 1424.050781 385.730469 1385.359375 470.699219 1385.359375 470.699219 "/>
<path fill-rule="nonzero" fill="rgb(12.939453%, 12.939453%, 47.068787%)" fill-opacity="1" d="M 1363.53125 405.519531 C 1363.53125 405.519531 1343.261719 488.429688 1401.988281 507.058594 C 1460.710938 525.691406 1538.550781 496.710938 1538.550781 496.710938 C 1538.550781 496.710938 1538.320312 514.78125 1539.980469 536.730469 C 1546.25 526.160156 1555.910156 520.820312 1563.71875 523.609375 C 1568.398438 525.28125 1571.878906 529.691406 1573.390625 535.890625 C 1574.898438 542.078125 1574.328125 549.539062 1571.789062 556.628906 C 1566.738281 570.75 1555.320312 579.828125 1545.710938 577.371094 C 1547.828125 586.808594 1550.441406 595.601562 1553.988281 602.128906 C 1570.550781 632.601562 1577.039062 625.558594 1577.039062 625.558594 C 1577.039062 625.558594 1608.429688 574.449219 1614.5 519.710938 C 1620.570312 464.960938 1590.390625 423.019531 1548.230469 404.671875 C 1506.078125 386.308594 1476.878906 393.308594 1433.980469 407.261719 C 1391.078125 421.210938 1363.53125 405.519531 1363.53125 405.519531 "/>
<path fill-rule="nonzero" fill="rgb(12.939453%, 12.939453%, 47.068787%)" fill-opacity="1" d="M 1417.421875 541.378906 C 1413.640625 542.398438 1411.089844 544.769531 1409.621094 547.039062 C 1407.648438 550.070312 1407.300781 553.089844 1407.300781 553.089844 C 1407.148438 554.339844 1408.03125 555.480469 1409.28125 555.640625 C 1409.898438 555.738281 1410.53125 555.578125 1411.03125 555.199219 C 1411.53125 554.808594 1411.851562 554.238281 1411.910156 553.621094 C 1411.910156 553.621094 1412.179688 551.558594 1413.53125 549.5 C 1414.871094 547.429688 1416.949219 545.488281 1421.660156 545.488281 C 1426.371094 545.488281 1428.71875 547.488281 1430.210938 549.601562 C 1431.699219 551.699219 1432.019531 553.75 1432.019531 553.75 C 1432.109375 554.371094 1432.449219 554.929688 1432.96875 555.289062 C 1433.480469 555.648438 1434.121094 555.789062 1434.738281 555.671875 C 1435.980469 555.421875 1436.78125 554.21875 1436.539062 552.980469 C 1436.539062 552.980469 1435.988281 549.941406 1433.878906 546.949219 C 1431.769531 543.949219 1427.78125 540.859375 1421.628906 540.859375 C 1420.089844 540.851562 1418.691406 541.058594 1417.429688 541.378906 Z M 1483.328125 544.21875 C 1479.550781 545.238281 1476.96875 547.558594 1475.488281 549.828125 C 1473.519531 552.859375 1473.191406 555.960938 1473.191406 555.960938 C 1473.058594 557.210938 1473.949219 558.339844 1475.191406 558.488281 C 1476.441406 558.621094 1477.558594 557.730469 1477.71875 556.488281 C 1477.71875 556.488281 1477.980469 554.449219 1479.328125 552.390625 C 1480.679688 550.320312 1482.820312 548.269531 1487.53125 548.269531 C 1492.238281 548.269531 1494.5 550.300781 1495.988281 552.398438 C 1497.480469 554.511719 1497.851562 556.628906 1497.851562 556.628906 C 1498.089844 557.871094 1499.28125 558.671875 1500.519531 558.449219 C 1501.761719 558.21875 1502.578125 557.019531 1502.351562 555.769531 C 1502.351562 555.769531 1501.890625 552.78125 1499.769531 549.789062 C 1497.660156 546.789062 1493.691406 543.691406 1487.539062 543.691406 C 1486 543.691406 1484.601562 543.890625 1483.339844 544.210938 Z M 1448 571.621094 C 1447.871094 571.640625 1447.738281 571.671875 1447.609375 571.71875 C 1447.03125 572.011719 1446.601562 572.539062 1446.429688 573.179688 L 1440.128906 594.859375 C 1439.890625 595.839844 1440.308594 596.859375 1441.179688 597.378906 L 1449.410156 602.550781 C 1450.46875 603.199219 1451.859375 602.878906 1452.53125 601.828125 C 1453.179688 600.761719 1452.859375 599.378906 1451.808594 598.699219 L 1445.058594 594.460938 L 1450.839844 574.5 C 1451.191406 573.289062 1450.5 572.03125 1449.300781 571.660156 C 1448.890625 571.539062 1448.449219 571.53125 1448.039062 571.640625 "/>
<path fill-rule="nonzero" fill="rgb(100%, 33.325195%, 33.325195%)" fill-opacity="1" d="M 1430.578125 623.519531 C 1430.578125 623.519531 1438.808594 619.941406 1454.238281 620.539062 C 1469.679688 621.140625 1484.148438 627.839844 1484.148438 627.839844 C 1484.148438 627.839844 1478.480469 646.078125 1458.898438 647.46875 C 1439.320312 648.859375 1430.578125 623.519531 1430.578125 623.519531 "/>
<path fill-rule="nonzero" fill="rgb(1.177979%, 50.584412%, 88.28125%)" fill-opacity="1" d="M 1499.070312 788.019531 L 1493.96875 965.339844 L 1333.230469 1085.25 C 1333.230469 1085.25 1330.191406 1098.25 1342.808594 1117.320312 C 1355.441406 1136.386719 1369.589844 1139.464844 1369.589844 1139.464844 L 1575.460938 1000.941406 L 1608.78125 793.121094 C 1608.78125 793.121094 1610.539062 738.640625 1558.371094 738.640625 C 1506.199219 738.640625 1499.070312 788.019531 1499.070312 788.019531 "/>
<path fill-rule="nonzero" fill="rgb(59.959412%, 59.959412%, 59.959412%)" fill-opacity="1" d="M 244.753906 1207.660156 C 242.027344 1207.660156 239.453125 1208.925781 237.789062 1211.085938 C 236.125 1213.246094 235.554688 1216.058594 236.25 1218.695312 L 402.324219 1838.453125 C 403.363281 1842.289062 406.851562 1844.953125 410.828125 1844.945312 L 1040.96875 1844.945312 C 1044.949219 1844.953125 1048.429688 1842.289062 1049.480469 1838.453125 L 1215.550781 1218.695312 C 1216.238281 1216.058594 1215.671875 1213.246094 1214.011719 1211.085938 C 1212.339844 1208.925781 1209.769531 1207.660156 1207.039062 1207.660156 Z M 256.246094 1225.1875 L 1195.550781 1225.1875 L 1034.21875 1827.351562 L 417.578125 1827.351562 L 256.246094 1225.1875 "/>
<path fill-rule="nonzero" fill="rgb(59.959412%, 59.959412%, 59.959412%)" fill-opacity="1" d="M 377.394531 1688.324219 L 377.394531 1705.027344 L 1073.921875 1705.027344 L 1073.921875 1688.324219 L 377.394531 1688.324219 "/>
<path fill-rule="nonzero" fill="rgb(59.959412%, 59.959412%, 59.959412%)" fill-opacity="1" d="M 1279.628906 1144.554688 C 1278.859375 1144.5625 1278.089844 1144.675781 1277.351562 1144.886719 L 1236.839844 1155.722656 C 1236.839844 1155.722656 1226.78125 1157.617188 1218.140625 1166.238281 C 1208.941406 1175.441406 1206.328125 1187.601562 1206.328125 1187.601562 L 1198.601562 1213.957031 C 1197.238281 1218.617188 1199.910156 1223.503906 1204.578125 1224.863281 C 1209.238281 1226.226562 1214.121094 1223.554688 1215.480469 1218.890625 L 1223.269531 1192.207031 C 1223.300781 1192.097656 1223.320312 1191.984375 1223.339844 1191.875 C 1223.339844 1191.875 1226.101562 1183.144531 1230.609375 1178.632812 C 1235.691406 1173.550781 1239.769531 1172.984375 1239.769531 1172.984375 C 1240.050781 1172.996094 1240.328125 1172.996094 1240.609375 1172.984375 L 1281.898438 1161.882812 C 1284.160156 1161.28125 1286.078125 1159.808594 1287.25 1157.785156 C 1288.421875 1155.765625 1288.738281 1153.359375 1288.128906 1151.105469 C 1287.089844 1147.265625 1283.601562 1144.605469 1279.628906 1144.613281 "/>
<path fill-rule="nonzero" fill="rgb(17.651367%, 63.476562%, 98.826599%)" fill-opacity="1" d="M 1072.058594 1846.730469 C 1072.058594 1867.472656 1055.238281 1884.289062 1034.5 1884.289062 C 1013.75 1884.289062 996.9375 1867.472656 996.9375 1846.730469 C 996.9375 1825.984375 1013.75 1809.171875 1034.5 1809.171875 C 1055.238281 1809.171875 1072.058594 1825.984375 1072.058594 1846.730469 "/>
<path fill-rule="nonzero" fill="rgb(10.205078%, 10.205078%, 36.863708%)" fill-opacity="1" d="M 1034.480469 1798.652344 C 1008.058594 1798.652344 986.433594 1820.347656 986.433594 1846.761719 C 986.433594 1873.175781 1008.058594 1894.804688 1034.480469 1894.804688 C 1060.890625 1894.804688 1082.519531 1873.175781 1082.519531 1846.761719 C 1082.519531 1820.347656 1060.890625 1798.652344 1034.480469 1798.652344 Z M 1034.480469 1819.6875 C 1049.550781 1819.6875 1061.550781 1831.6875 1061.550781 1846.761719 C 1061.550781 1861.835938 1049.550781 1873.769531 1034.480469 1873.769531 C 1019.410156 1873.769531 1007.410156 1861.835938 1007.410156 1846.761719 C 1007.410156 1831.6875 1019.410156 1819.6875 1034.480469 1819.6875 "/>
<path fill-rule="nonzero" fill="rgb(17.651367%, 63.476562%, 98.826599%)" fill-opacity="1" d="M 454.828125 1846.730469 C 454.828125 1867.472656 438.011719 1884.289062 417.269531 1884.289062 C 396.523438 1884.289062 379.707031 1867.472656 379.707031 1846.730469 C 379.707031 1825.984375 396.523438 1809.171875 417.269531 1809.171875 C 438.011719 1809.171875 454.828125 1825.984375 454.828125 1846.730469 "/>
<path fill-rule="nonzero" fill="rgb(10.205078%, 10.205078%, 36.863708%)" fill-opacity="1" d="M 417.257812 1798.652344 C 390.84375 1798.652344 369.214844 1820.347656 369.214844 1846.761719 C 369.214844 1873.175781 390.84375 1894.804688 417.257812 1894.804688 C 443.671875 1894.804688 465.300781 1873.175781 465.300781 1846.761719 C 465.300781 1820.347656 443.671875 1798.652344 417.257812 1798.652344 Z M 417.257812 1819.6875 C 432.328125 1819.6875 444.328125 1831.6875 444.328125 1846.761719 C 444.328125 1861.835938 432.328125 1873.769531 417.257812 1873.769531 C 402.183594 1873.769531 390.183594 1861.835938 390.183594 1846.761719 C 390.183594 1831.6875 402.183594 1819.6875 417.257812 1819.6875 "/>
<path fill-rule="nonzero" fill="rgb(59.959412%, 59.959412%, 59.959412%)" fill-opacity="1" d="M 614.0625 1217.71875 L 605.753906 1218.578125 L 608.417969 1244.308594 L 429.042969 1244.308594 L 424.496094 1220.285156 L 416.289062 1221.839844 L 420.542969 1244.308594 L 257.027344 1244.308594 L 257.027344 1256.835938 L 422.914062 1256.835938 L 442.535156 1360.503906 L 286.246094 1360.503906 L 286.246094 1368.859375 L 444.117188 1368.859375 L 475.511719 1534.707031 L 328.007812 1534.707031 L 328.007812 1543.058594 L 477.089844 1543.058594 L 499.433594 1661.09375 L 365.019531 1661.09375 L 365.019531 1673.621094 L 501.804688 1673.621094 L 505.71875 1694.3125 L 513.925781 1692.757812 L 510.304688 1673.621094 L 652.898438 1673.621094 L 655.308594 1696.878906 L 663.617188 1696.019531 L 661.296875 1673.621094 L 798.765625 1673.621094 L 796.445312 1696.019531 L 804.753906 1696.878906 L 807.160156 1673.621094 L 946.394531 1673.621094 L 942.773438 1692.757812 L 950.980469 1694.3125 L 954.894531 1673.621094 L 1087.761719 1673.621094 L 1087.761719 1661.09375 L 957.265625 1661.09375 L 979.609375 1543.058594 L 1123.191406 1543.058594 L 1123.191406 1534.707031 L 981.191406 1534.707031 L 1012.578125 1368.859375 L 1164.960938 1368.859375 L 1164.960938 1360.503906 L 1014.171875 1360.503906 L 1033.789062 1256.835938 L 1195.75 1256.835938 L 1195.75 1244.308594 L 1036.160156 1244.308594 L 1040.410156 1221.839844 L 1032.210938 1220.285156 L 1027.660156 1244.308594 L 851.644531 1244.308594 L 854.308594 1218.578125 L 846 1217.71875 L 843.246094 1244.308594 L 616.816406 1244.308594 Z M 431.414062 1256.835938 L 609.714844 1256.835938 L 620.457031 1360.503906 L 451.039062 1360.503906 Z M 618.113281 1256.835938 L 841.945312 1256.835938 L 831.207031 1360.503906 L 628.855469 1360.503906 Z M 850.34375 1256.835938 L 1025.289062 1256.835938 L 1005.671875 1360.503906 L 839.605469 1360.503906 Z M 452.621094 1368.859375 L 621.320312 1368.859375 L 638.503906 1534.707031 L 484.011719 1534.707031 Z M 629.71875 1368.859375 L 830.339844 1368.859375 L 813.15625 1534.707031 L 646.902344 1534.707031 Z M 838.738281 1368.859375 L 1004.078125 1368.859375 L 972.691406 1534.707031 L 821.554688 1534.707031 Z M 485.59375 1543.058594 L 639.371094 1543.058594 L 651.601562 1661.09375 L 507.933594 1661.09375 Z M 647.769531 1543.058594 L 812.292969 1543.058594 L 800.0625 1661.09375 L 659.996094 1661.09375 Z M 820.6875 1543.058594 L 971.109375 1543.058594 L 948.765625 1661.09375 L 808.460938 1661.09375 L 820.6875 1543.058594 "/>
<path fill-rule="nonzero" fill="rgb(12.939453%, 12.939453%, 47.068787%)" fill-opacity="1" d="M 1335.769531 1146.292969 C 1335.769531 1163.683594 1321.679688 1177.777344 1304.289062 1177.777344 C 1286.898438 1177.777344 1272.800781 1163.683594 1272.800781 1146.292969 C 1272.800781 1128.90625 1286.898438 1114.808594 1304.289062 1114.808594 C 1321.679688 1114.808594 1335.769531 1128.90625 1335.769531 1146.292969 "/>
</svg>
